<svg width="36" height="35" viewBox="0 0 36 35" fill="none" xmlns="http://www.w3.org/2000/svg">
<path d="M0.0269775 17L8.02698 10L24.027 11L25.027 27L18.027 35C18.027 35 18.028 29.001 12.027 23C6.02598 16.999 0.0269775 17 0.0269775 17Z" fill="#A0041E"/>
<path d="M1.95077e-05 35C1.95077e-05 35 -0.0359805 27.021 2.98502 24C6.00602 20.979 14.027 21.187 14.027 21.187C14.027 21.187 14.026 29 11.026 32C8.02602 35 1.95077e-05 35 1.95077e-05 35Z" fill="#FFAC33"/>
<path d="M8.026 31C10.2351 31 12.026 29.2091 12.026 27C12.026 24.7909 10.2351 23 8.026 23C5.81686 23 4.026 24.7909 4.026 27C4.026 29.2091 5.81686 31 8.026 31Z" fill="#FFCC4D"/>
<path d="M35.026 0C35.026 0 25.026 0 13.026 10C7.02599 15 7.02599 24 9.02599 26C11.026 28 20.026 28 25.026 22C35.026 10 35.026 0 35.026 0Z" fill="#55ACEE"/>
<path d="M26.026 5C24.403 5 23.013 5.971 22.385 7.36C22.887 7.133 23.44 7 24.026 7C26.235 7 28.026 8.791 28.026 11C28.026 11.586 27.893 12.139 27.667 12.64C29.056 12.013 30.026 10.623 30.026 9C30.026 6.791 28.235 5 26.026 5Z" fill="black"/>
<path d="M7.02698 28C7.02698 28 7.02698 24 8.02698 23C9.02698 22 21.028 12.001 22.027 13C23.026 13.999 13.026 26 12.026 27C11.026 28 7.02698 28 7.02698 28Z" fill="#A0041E"/>
</svg>
