<svg width="36" height="36" viewBox="0 0 36 36" fill="none" xmlns="http://www.w3.org/2000/svg">
<path d="M18 36C27.9411 36 36 27.9411 36 18C36 8.05887 27.9411 0 18 0C8.05887 0 0 8.05887 0 18C0 27.9411 8.05887 36 18 36Z" fill="#99AAB5"/>
<path d="M18 32C25.732 32 32 25.732 32 18C32 10.268 25.732 4 18 4C10.268 4 4 10.268 4 18C4 25.732 10.268 32 18 32Z" fill="#E1E8ED"/>
<path d="M19 18C19 18.553 18.553 19 18 19C17.448 19 17 18.553 17 18V7C17 6.448 17.448 6 18 6C18.553 6 19 6.448 19 7V18Z" fill="#66757F"/>
<path d="M23.25 9.23699C23.729 9.51299 23.893 10.125 23.617 10.603L19.117 18.398C18.841 18.876 18.228 19.04 17.75 18.763C17.272 18.487 17.108 17.875 17.385 17.398L21.885 9.60299C22.161 9.12499 22.772 8.96099 23.25 9.23699Z" fill="#66757F"/>
</svg>
