<svg width="33" height="36" viewBox="0 0 33 36" fill="none" xmlns="http://www.w3.org/2000/svg">
<path d="M32.018 17.675C32.018 17.172 31.898 16.7 31.697 16.271C30.356 11.945 24.078 12.261 15.148 12.05C13.655 12.015 14.509 10.252 15.033 6.382C15.374 3.865 13.751 0 11.023 0C6.525 0 10.852 3.548 6.875 12.322C4.75 17.01 0 14.384 0 19.093V29.812C0 31.645 0.18 33.407 2.758 33.697C5.257 33.978 4.695 35.759 8.3 35.759H26.344C28.182 35.759 29.677 34.263 29.677 32.425C29.677 31.663 29.41 30.969 28.979 30.407C29.999 29.836 30.699 28.758 30.699 27.508C30.699 26.748 30.433 26.054 30.003 25.493C31.026 24.923 31.728 23.844 31.728 22.592C31.728 21.683 31.36 20.859 30.767 20.256C31.524 19.645 32.018 18.721 32.018 17.675Z" fill="#FFDB5E"/>
<path d="M20.082 21.008H28.686C29.856 21.008 30.954 20.382 31.552 19.375C31.798 18.96 31.661 18.423 31.245 18.176C30.83 17.929 30.293 18.068 30.046 18.483C29.763 18.962 29.24 19.258 28.685 19.258H19.875C19.002 19.258 18.292 18.548 18.292 17.675C18.292 16.802 19.002 16.092 19.875 16.092H25.762C26.245 16.092 26.637 15.7 26.637 15.217C26.637 14.734 26.245 14.342 25.762 14.342H19.874C18.036 14.342 16.541 15.837 16.541 17.675C16.541 18.7 17.016 19.607 17.746 20.219C17.131 20.824 16.748 21.664 16.748 22.592C16.748 23.62 17.226 24.53 17.96 25.141C17.349 25.745 16.97 26.582 16.97 27.508C16.97 28.628 17.529 29.616 18.379 30.221C17.855 30.81 17.527 31.577 17.527 32.425C17.527 34.263 19.022 35.758 20.86 35.758H26.344C27.514 35.758 28.613 35.133 29.211 34.126C29.458 33.711 29.321 33.174 28.906 32.927C28.49 32.682 27.953 32.817 27.707 33.232C27.422 33.711 26.899 34.008 26.344 34.008H20.86C19.987 34.008 19.277 33.298 19.277 32.425C19.277 31.552 19.987 30.842 20.86 30.842H27.366C28.536 30.842 29.636 30.216 30.233 29.209C30.48 28.793 30.343 28.256 29.928 28.01C29.509 27.759 28.974 27.9 28.729 28.315C28.44 28.802 27.93 29.092 27.366 29.092H20.303C19.43 29.092 18.72 28.381 18.72 27.508C18.72 26.635 19.43 25.925 20.303 25.925H28.394C29.564 25.925 30.663 25.3 31.261 24.293C31.508 23.878 31.371 23.341 30.956 23.094C30.539 22.848 30.003 22.984 29.757 23.399C29.468 23.885 28.958 24.175 28.394 24.175H20.082C19.209 24.175 18.499 23.465 18.499 22.592C18.499 21.719 19.208 21.008 20.082 21.008Z" fill="#EE9547"/>
</svg>
