<?xml version="1.0" encoding="UTF-8" standalone="no"?>
<svg
   xmlns:dc="http://purl.org/dc/elements/1.1/"
   xmlns:cc="http://creativecommons.org/ns#"
   xmlns:rdf="http://www.w3.org/1999/02/22-rdf-syntax-ns#"
   xmlns:svg="http://www.w3.org/2000/svg"
   xmlns="http://www.w3.org/2000/svg"
   xmlns:sodipodi="http://sodipodi.sourceforge.net/DTD/sodipodi-0.dtd"
   xmlns:inkscape="http://www.inkscape.org/namespaces/inkscape"
   inkscape:version="1.0 (4035a4fb49, 2020-05-01)"
   sodipodi:docname="up-arrow.svg"
   xml:space="preserve"
   style="enable-background:new 0 0 512 512;"
   viewBox="0 0 512 512"
   y="0px"
   x="0px"
   id="Capa_1"
   version="1.1"><metadata
   id="metadata43"><rdf:RDF><cc:Work
       rdf:about=""><dc:format>image/svg+xml</dc:format><dc:type
         rdf:resource="http://purl.org/dc/dcmitype/StillImage" /></cc:Work></rdf:RDF></metadata><defs
   id="defs41" /><sodipodi:namedview
   inkscape:current-layer="Capa_1"
   inkscape:window-maximized="1"
   inkscape:window-y="27"
   inkscape:window-x="0"
   inkscape:cy="256"
   inkscape:cx="239.79702"
   inkscape:zoom="1.1109069"
   showgrid="false"
   id="namedview39"
   inkscape:window-height="717"
   inkscape:window-width="1024"
   inkscape:pageshadow="2"
   inkscape:pageopacity="0"
   guidetolerance="10"
   gridtolerance="10"
   objecttolerance="10"
   borderopacity="1"
   bordercolor="#666666"
   pagecolor="#ffffff" />
<path
   id="path2"
   d="M263.432,3.136c-4.16-4.171-10.914-4.179-15.085-0.019c-0.006,0.006-0.013,0.013-0.019,0.019  l-192,192c-4.093,4.237-3.975,10.99,0.262,15.083c4.134,3.992,10.687,3.992,14.82,0L245.213,36.416v464.917  c0,5.891,4.776,10.667,10.667,10.667c5.891,0,10.667-4.776,10.667-10.667V36.416l173.781,173.781  c4.093,4.237,10.845,4.355,15.083,0.262c4.237-4.093,4.354-10.845,0.262-15.083c-0.086-0.089-0.173-0.176-0.262-0.262L263.432,3.136  z"
   style="fill:#ffffff;fill-opacity:1" />
<path
   style="fill:#ffffff;fill-opacity:1"
   id="path4"
   d="M447.88,213.333c-2.831,0.005-5.548-1.115-7.552-3.115L255.88,25.749L71.432,210.219c-4.237,4.093-10.99,3.975-15.083-0.262  c-3.992-4.134-3.992-10.687,0-14.82l192-192c4.165-4.164,10.917-4.164,15.083,0l192,192c4.159,4.172,4.149,10.926-0.024,15.085  C453.409,212.214,450.702,213.333,447.88,213.333z" />
<path
   style="fill:#ffffff;fill-opacity:1"
   id="path6"
   d="M255.88,512c-5.891,0-10.667-4.776-10.667-10.667V10.667C245.213,4.776,249.989,0,255.88,0  c5.891,0,10.667,4.776,10.667,10.667v490.667C266.546,507.224,261.771,512,255.88,512z" />
<g
   style="fill:#ffffff;fill-opacity:1"
   id="g8">
</g>
<g
   style="fill:#ffffff;fill-opacity:1"
   id="g10">
</g>
<g
   style="fill:#ffffff;fill-opacity:1"
   id="g12">
</g>
<g
   style="fill:#ffffff;fill-opacity:1"
   id="g14">
</g>
<g
   style="fill:#ffffff;fill-opacity:1"
   id="g16">
</g>
<g
   style="fill:#ffffff;fill-opacity:1"
   id="g18">
</g>
<g
   style="fill:#ffffff;fill-opacity:1"
   id="g20">
</g>
<g
   style="fill:#ffffff;fill-opacity:1"
   id="g22">
</g>
<g
   style="fill:#ffffff;fill-opacity:1"
   id="g24">
</g>
<g
   style="fill:#ffffff;fill-opacity:1"
   id="g26">
</g>
<g
   style="fill:#ffffff;fill-opacity:1"
   id="g28">
</g>
<g
   style="fill:#ffffff;fill-opacity:1"
   id="g30">
</g>
<g
   style="fill:#ffffff;fill-opacity:1"
   id="g32">
</g>
<g
   style="fill:#ffffff;fill-opacity:1"
   id="g34">
</g>
<g
   style="fill:#ffffff;fill-opacity:1"
   id="g36">
</g>
</svg>
