<svg width="383" height="333" viewBox="0 0 383 333" fill="none" xmlns="http://www.w3.org/2000/svg">
<circle opacity="0.2" cx="193.114" cy="188.661" r="143.58" fill="#B0A8A8"/>
<g clip-path="url(#clip0)">
<path d="M136.137 275.554C136.137 250.177 115.569 229.609 90.1911 229.609C64.8134 229.609 44.2456 250.177 44.2456 275.554C44.2456 298.491 61.0444 317.498 83.0121 320.943V288.835H71.3462V275.554H83.0121V265.432C83.0121 253.919 89.868 247.556 100.367 247.556C105.393 247.556 110.651 248.454 110.651 248.454V259.761H104.854C99.1468 259.761 97.37 263.305 97.37 266.94V275.554H110.113L108.076 288.835H97.37V320.943C119.338 317.498 136.137 298.491 136.137 275.554Z" fill="#3D5A96"/>
<path d="M108.076 288.836L110.113 275.554H97.3703V266.94C97.3703 263.305 99.1471 259.761 104.854 259.761H110.651V248.454C110.651 248.454 105.393 247.556 100.368 247.556C89.8683 247.556 83.0124 253.919 83.0124 265.432V275.554H71.3466V288.836H83.0124V320.943C85.3545 321.311 87.7505 321.5 90.1914 321.5C92.6322 321.5 95.0282 321.311 97.3703 320.943V288.836H108.076Z" fill="white"/>
</g>
<path d="M244.988 286.558C244.988 261.487 265.513 241.163 290.833 241.163C316.153 241.163 336.679 261.487 336.679 286.558C336.679 311.629 316.153 331.953 290.833 331.953C265.513 331.953 244.988 311.629 244.988 286.558Z" fill="#F68634"/>
<path d="M296.515 298.778L304.365 306.555C305.974 308.145 305.974 310.727 304.365 312.318C302.759 313.909 300.155 313.909 298.55 312.318L290.831 304.676L283.12 312.318C282.315 313.113 281.262 313.511 280.208 313.511C279.156 313.511 278.104 313.113 277.3 312.318C275.693 310.727 275.693 308.146 277.298 306.555L285.15 298.778C282.291 298.133 279.534 297.011 276.995 295.433C275.073 294.232 274.496 291.718 275.707 289.813C276.914 287.905 279.454 287.331 281.379 288.531C287.128 292.113 294.534 292.114 300.286 288.531C302.211 287.331 304.749 287.905 305.959 289.813C307.17 291.716 306.591 294.232 304.67 295.433C302.13 297.012 299.373 298.133 296.515 298.778Z" fill="white"/>
<path fill-rule="evenodd" clip-rule="evenodd" d="M276.754 273.516C276.754 281.185 283.053 287.424 290.797 287.424C298.544 287.424 304.84 281.185 304.84 273.516C304.84 265.845 298.544 259.605 290.797 259.605C283.053 259.605 276.754 265.845 276.754 273.516ZM296.612 273.516C296.612 270.34 294.004 267.757 290.797 267.757C287.593 267.757 284.983 270.34 284.983 273.516C284.983 276.69 287.593 279.274 290.797 279.274C294.004 279.274 296.612 276.69 296.612 273.516Z" fill="white"/>
<circle cx="336.692" cy="151.329" r="45.9455" fill="#4981C0"/>
<path fill-rule="evenodd" clip-rule="evenodd" d="M363.83 138.583C364.255 137.324 363.83 136.409 361.949 136.409H355.697C354.119 136.409 353.391 137.21 352.966 138.068C352.966 138.068 349.75 145.392 345.258 150.14C343.802 151.514 343.134 151.971 342.345 151.971C341.92 151.971 341.374 151.514 341.374 150.255V138.526C341.374 137.038 340.889 136.352 339.553 136.352H329.721C328.75 136.352 328.143 137.038 328.143 137.725C328.143 139.155 330.389 139.498 330.632 143.503V152.2C330.632 154.088 330.267 154.431 329.478 154.431C327.354 154.431 322.195 147.051 319.1 138.64C318.493 136.981 317.886 136.352 316.308 136.352H309.996C308.175 136.352 307.872 137.153 307.872 138.011C307.872 139.556 309.996 147.337 317.765 157.636C322.924 164.673 330.267 168.449 336.883 168.449C340.889 168.449 341.374 167.591 341.374 166.161V160.84C341.374 159.123 341.738 158.837 343.013 158.837C343.923 158.837 345.562 159.295 349.264 162.67C353.513 166.675 354.241 168.506 356.608 168.506H362.859C364.68 168.506 365.53 167.648 365.044 165.989C364.498 164.33 362.434 161.927 359.764 159.066C358.307 157.464 356.122 155.69 355.455 154.832C354.544 153.688 354.787 153.23 355.455 152.2C355.394 152.2 363.041 142.016 363.83 138.583Z" fill="white"/>
<path d="M232.112 173.007C228.016 152.819 210.466 137.604 189.113 137.604C172.149 137.604 157.523 147.258 150.211 161.303C132.661 163.059 118.912 177.98 118.912 196.121C118.912 215.43 134.709 231.231 154.013 231.231H230.064C246.152 231.231 259.314 218.065 259.314 201.972C259.314 186.466 247.323 173.884 232.112 173.007Z" fill="url(#paint0_linear)"/>
<path d="M0 150.371C0 125.3 20.5258 104.975 45.8456 104.975C71.1654 104.975 91.6912 125.3 91.6912 150.371C91.6912 175.442 71.1654 195.766 45.8456 195.766C20.5258 195.766 0 175.442 0 150.371Z" fill="url(#paint1_linear)"/>
<mask id="mask0" mask-type="alpha" maskUnits="userSpaceOnUse" x="0" y="104" width="92" height="92">
<path fill-rule="evenodd" clip-rule="evenodd" d="M0 150.371C0 125.3 20.5258 104.975 45.8456 104.975C71.1654 104.975 91.6912 125.3 91.6912 150.371C91.6912 175.442 71.1654 195.766 45.8456 195.766C20.5258 195.766 0 175.442 0 150.371Z" fill="white"/>
</mask>
<g mask="url(#mask0)">
<path fill-rule="evenodd" clip-rule="evenodd" d="M45.8437 123.417C38.4548 123.417 37.5268 123.45 34.6238 123.58C31.7259 123.712 29.7478 124.166 28.017 124.833C26.2267 125.521 24.708 126.442 23.1949 127.941C21.6808 129.439 20.7507 130.943 20.0532 132.715C19.3783 134.429 18.919 136.388 18.7885 139.257C18.6587 142.132 18.6246 143.051 18.6246 150.371C18.6246 157.691 18.6575 158.607 18.7891 161.482C18.9224 164.352 19.3812 166.311 20.0537 168.024C20.7496 169.797 21.6796 171.301 23.1932 172.799C24.7057 174.298 26.2244 175.222 28.0136 175.91C29.7456 176.577 31.7242 177.031 34.6215 177.162C37.5251 177.293 38.4523 177.325 45.8446 177.325C53.2379 177.325 54.1629 177.293 57.0664 177.162C59.9644 177.031 61.9447 176.577 63.6766 175.91C65.4664 175.222 66.9828 174.298 68.4953 172.799C70.0095 171.301 70.9395 169.797 71.6371 168.025C72.3063 166.311 72.7656 164.351 72.9017 161.483C73.0322 158.608 73.0662 157.691 73.0662 150.371C73.0662 143.051 73.0322 142.132 72.9017 139.257C72.7656 136.388 72.3063 134.429 71.6371 132.715C70.9395 130.943 70.0095 129.439 68.4953 127.941C66.9811 126.441 65.467 125.52 63.6749 124.833C61.9396 124.166 59.9604 123.712 57.0625 123.58C54.1595 123.45 53.2349 123.417 45.8437 123.417ZM43.4062 128.258C43.8804 128.257 44.3905 128.257 44.9409 128.257L45.8482 128.258C53.1162 128.258 53.9776 128.284 56.8478 128.413C59.5018 128.533 60.9423 128.972 61.9018 129.341C63.1721 129.829 64.0778 130.413 65.03 131.357C65.9827 132.3 66.5725 133.199 67.067 134.457C67.4396 135.406 67.8837 136.832 68.0044 139.46C68.1349 142.301 68.1632 143.155 68.1632 150.348C68.1632 157.541 68.1349 158.395 68.0044 161.236C67.8831 163.864 67.4396 165.291 67.067 166.24C66.5736 167.497 65.9827 168.393 65.03 169.336C64.0772 170.279 63.1727 170.863 61.9018 171.352C60.9434 171.722 59.5018 172.16 56.8478 172.281C53.9782 172.41 53.1162 172.438 45.8482 172.438C38.5796 172.438 37.7182 172.41 34.8486 172.281C32.1945 172.159 30.7541 171.72 29.794 171.351C28.5237 170.863 27.6163 170.279 26.6636 169.335C25.7108 168.392 25.121 167.496 24.6265 166.237C24.2539 165.288 23.8099 163.862 23.6891 161.234C23.5587 158.393 23.5326 157.539 23.5326 150.341C23.5326 143.144 23.5587 142.295 23.6891 139.453C23.8105 136.825 24.2539 135.399 24.6265 134.449C25.1199 133.191 25.7108 132.292 26.6636 131.349C27.6163 130.406 28.5237 129.822 29.794 129.332C30.7535 128.961 32.1945 128.523 34.8486 128.403C37.3597 128.29 38.3329 128.257 43.4062 128.251V128.258ZM57.1117 135.972C57.1117 134.192 58.5748 132.75 60.3782 132.75V132.749C62.1816 132.749 63.6448 134.192 63.6448 135.972C63.6448 137.751 62.1816 139.195 60.3782 139.195C58.5748 139.195 57.1117 137.751 57.1117 135.972ZM45.8479 136.529C38.1279 136.529 31.8688 142.727 31.8688 150.371C31.8688 158.015 38.1279 164.21 45.8479 164.21C53.5679 164.21 59.8248 158.015 59.8248 150.371C59.8248 142.727 53.5674 136.529 45.8474 136.529H45.8479ZM54.9215 150.371C54.9215 145.409 50.8588 141.387 45.8478 141.387C40.8363 141.387 36.7742 145.409 36.7742 150.371C36.7742 155.333 40.8363 159.356 45.8478 159.356C50.8588 159.356 54.9215 155.333 54.9215 150.371Z" fill="white"/>
</g>
<path d="M189.114 90.7904C214.433 90.7904 234.959 70.4663 234.959 45.3952C234.959 20.3241 214.433 0 189.114 0C163.794 0 143.268 20.3241 143.268 45.3952C143.268 70.4663 163.794 90.7904 189.114 90.7904Z" fill="url(#paint2_linear)"/>
<path d="M160.342 44.7299C165.702 41.8069 171.684 39.3672 177.274 36.9151C186.89 32.8987 196.545 28.952 206.297 25.2776C208.194 24.6516 211.604 24.0394 211.938 26.8235C211.755 30.7646 211.002 34.6826 210.485 38.6006C209.174 47.2166 207.659 55.8031 206.182 64.3908C205.673 67.2514 202.054 68.7321 199.738 66.9015C194.173 63.1796 188.566 59.4937 183.072 55.6855C181.272 53.8748 182.941 51.2745 184.548 49.9815C189.132 45.509 193.992 41.709 198.336 37.0053C199.508 34.2036 196.046 36.5648 194.904 37.2883C188.629 41.5698 182.508 46.1128 175.892 49.8757C172.513 51.7175 168.575 50.1435 165.197 49.1158C162.169 47.8742 157.731 46.6233 160.342 44.7302L160.342 44.7299Z" fill="white"/>
<defs>
<linearGradient id="paint0_linear" x1="291.715" y1="137.604" x2="291.715" y2="231.231" gradientUnits="userSpaceOnUse">
<stop stop-color="#FF52A1"/>
<stop offset="0.0666667" stop-color="#FF53A0"/>
<stop offset="0.133333" stop-color="#FF579D"/>
<stop offset="0.2" stop-color="#FF5D97"/>
<stop offset="0.266667" stop-color="#FE668F"/>
<stop offset="0.333333" stop-color="#FE7184"/>
<stop offset="0.4" stop-color="#FE7E78"/>
<stop offset="0.466667" stop-color="#FD8D6B"/>
<stop offset="0.533333" stop-color="#FD9D5C"/>
<stop offset="0.6" stop-color="#FCAC4F"/>
<stop offset="0.666667" stop-color="#FCB943"/>
<stop offset="0.733333" stop-color="#FCC438"/>
<stop offset="0.8" stop-color="#FBCD30"/>
<stop offset="0.866667" stop-color="#FBD32A"/>
<stop offset="0.933333" stop-color="#FBD727"/>
<stop offset="1" stop-color="#FBD826"/>
</linearGradient>
<linearGradient id="paint1_linear" x1="12.4165" y1="183.472" x2="81.452" y2="113.752" gradientUnits="userSpaceOnUse">
<stop stop-color="#FDBF65"/>
<stop offset="0.427083" stop-color="#FC6644"/>
<stop offset="0.708333" stop-color="#E93385"/>
<stop offset="1" stop-color="#984EBA"/>
</linearGradient>
<linearGradient id="paint2_linear" x1="204.399" y1="15.1348" x2="181.856" y2="68.2539" gradientUnits="userSpaceOnUse">
<stop stop-color="#37AEE2"/>
<stop offset="1" stop-color="#1E96C8"/>
</linearGradient>
<clipPath id="clip0">
<rect width="91.8909" height="91.8909" fill="white" transform="translate(44.2456 229.609)"/>
</clipPath>
</defs>
</svg>
