<?xml version="1.0" encoding="UTF-8" standalone="no"?>
<svg
   xmlns:dc="http://purl.org/dc/elements/1.1/"
   xmlns:cc="http://creativecommons.org/ns#"
   xmlns:rdf="http://www.w3.org/1999/02/22-rdf-syntax-ns#"
   xmlns:svg="http://www.w3.org/2000/svg"
   xmlns="http://www.w3.org/2000/svg"
   xmlns:sodipodi="http://sodipodi.sourceforge.net/DTD/sodipodi-0.dtd"
   xmlns:inkscape="http://www.inkscape.org/namespaces/inkscape"
   inkscape:version="1.0 (4035a4fb49, 2020-05-01)"
   inkscape:export-ydpi="130"
   inkscape:export-xdpi="130"
   inkscape:export-filename="logo-wide.png"
   sodipodi:docname="logo-wide.svg"
   id="svg226"
   viewBox="0 0 528 100"
   version="1.1"
   fill="none">
  <sodipodi:namedview
     inkscape:current-layer="svg226"
     inkscape:window-maximized="1"
     inkscape:window-y="27"
     inkscape:window-x="0"
     inkscape:cy="50"
     inkscape:cx="109.29446"
     inkscape:zoom="1.5157828"
     showgrid="false"
     id="namedview228"
     inkscape:window-height="717"
     inkscape:window-width="1024"
     inkscape:pageshadow="2"
     inkscape:pageopacity="0"
     guidetolerance="10"
     gridtolerance="10"
     objecttolerance="10"
     borderopacity="1"
     bordercolor="#666666"
     pagecolor="#ffffff" />
  <metadata
     id="metadata2">
    <rdf:RDF>
      <cc:Work
         rdf:about="">
        <dc:format>image/svg+xml</dc:format>
        <dc:type
           rdf:resource="http://purl.org/dc/dcmitype/StillImage" />
      </cc:Work>
    </rdf:RDF>
  </metadata>
  <path
     id="path4"
     fill="#3B3B3B"
     d="m268.6 43.942v0.058h-2.755l-1.856-4.031h-10.121l-1.827 4.031h-2.755v-0.058l9.251-19.807h0.812l9.251 19.807zm-9.657-15.37c-0.522 1.334-0.957 2.3877-1.305 3.161l-2.755 6.003h8.091l-2.726-6.003c-0.367-0.812-0.802-1.8657-1.305-3.161zm20.316 8.787c0.696 0.232 1.247 0.609 1.653 1.131s0.609 1.1697 0.609 1.943c0 1.1213-0.387 2.001-1.16 2.639-0.773 0.6187-1.798 0.928-3.074 0.928h-6.351v-12.876h5.887c1.237 0 2.233 0.3093 2.987 0.928s1.131 1.45 1.131 2.494c0 1.2953-0.561 2.233-1.682 2.813zm-5.916-4.263v3.393h3.248c0.657 0 1.15-0.1643 1.479-0.493s0.493-0.7443 0.493-1.247c0-0.464-0.164-0.8507-0.493-1.16-0.329-0.3287-0.822-0.493-1.479-0.493h-3.248zm3.654 8.932c0.696 0 1.218-0.1643 1.566-0.493s0.522-0.7637 0.522-1.305c0-0.522-0.174-0.9473-0.522-1.276-0.348-0.348-0.87-0.522-1.566-0.522h-3.654v3.596h3.654zm9.627-8.758h-3.886v-2.146h10.208v2.146h-3.886v10.73h-2.436v-10.73zm14.214 11.078c-1.295 0-2.455-0.29-3.48-0.87-1.024-0.58-1.827-1.3823-2.407-2.407-0.56-1.0247-0.841-2.1943-0.841-3.509s0.281-2.4843 0.841-3.509c0.58-1.0247 1.383-1.827 2.407-2.407 1.025-0.58 2.185-0.87 3.48-0.87 1.315 0 2.485 0.29 3.509 0.87 1.044 0.58 1.847 1.3823 2.407 2.407 0.58 1.0247 0.87 2.1943 0.87 3.509s-0.29 2.4843-0.87 3.509c-0.56 1.0247-1.363 1.827-2.407 2.407-1.024 0.58-2.194 0.87-3.509 0.87zm0-2.204c1.296 0 2.34-0.4253 3.132-1.276 0.812-0.8507 1.218-1.9527 1.218-3.306s-0.406-2.4553-1.218-3.306c-0.792-0.8507-1.836-1.276-3.132-1.276-1.256 0-2.291 0.435-3.103 1.305-0.792 0.8507-1.189 1.943-1.189 3.277 0 1.3533 0.397 2.4553 1.189 3.306 0.812 0.8507 1.847 1.276 3.103 1.276zm10.058-11.02h11.049v12.876h-2.407v-10.701h-6.206v10.701h-2.436v-12.876zm26.489 0v0.058l-5.336 13.369c-0.484 1.2373-0.986 2.2427-1.508 3.016-0.522 0.7927-1.17 1.4307-1.943 1.914-0.754 0.4833-1.702 0.8217-2.842 1.015l-0.435-2.001c0.85-0.1353 1.546-0.3867 2.088-0.754 0.56-0.3673 1.015-0.8313 1.363-1.392s0.705-1.2953 1.073-2.204l0.145-0.319-5.568-12.644v-0.058h2.581l2.61 6.177c0.657 1.5853 1.15 2.8903 1.479 3.915 0.328-1.0827 0.705-2.1653 1.131-3.248 0.019-0.0967 0.096-0.319 0.232-0.667l2.378-6.177h2.552zm9.3-0.087c1.102 0 2.126 0.261 3.074 0.783 0.947 0.5027 1.701 1.247 2.262 2.233 0.56 0.986 0.841 2.1557 0.841 3.509 0 1.4307-0.3 2.6487-0.899 3.654-0.58 1.0053-1.383 1.769-2.407 2.291-1.006 0.522-2.146 0.783-3.422 0.783-1.315 0-2.475-0.2997-3.48-0.899-1.006-0.5993-1.798-1.508-2.378-2.726s-0.87-2.7163-0.87-4.495v-1.624c0-1.6627 0.309-3.248 0.928-4.756 0.618-1.5273 1.585-2.726 2.9-3.596 0.696-0.4833 1.372-0.8507 2.03-1.102 0.657-0.2513 1.401-0.493 2.233-0.725 0.734-0.232 1.314-0.4253 1.74-0.58 0.444-0.1547 0.879-0.377 1.305-0.667l0.87 2.175c-0.522 0.348-1.025 0.6187-1.508 0.812-0.464 0.174-1.122 0.3867-1.972 0.638-0.735 0.2127-1.354 0.4157-1.856 0.609-0.503 0.174-1.006 0.4253-1.508 0.754-0.774 0.4833-1.402 1.189-1.885 2.117-0.484 0.928-0.803 2.0107-0.957 3.248 1.237-1.624 2.89-2.436 4.959-2.436zm-0.551 11.049c1.353 0 2.397-0.4157 3.132-1.247 0.754-0.8507 1.131-1.9333 1.131-3.248 0-1.2567-0.377-2.3007-1.131-3.132s-1.779-1.247-3.074-1.247c-0.793 0-1.508 0.1933-2.146 0.58s-1.141 0.928-1.508 1.624c-0.368 0.6767-0.551 1.4403-0.551 2.291 0 1.334 0.386 2.3973 1.16 3.19 0.792 0.7927 1.788 1.189 2.987 1.189zm7.34-0.058c1.141-0.116 1.943-0.5123 2.407-1.189 0.464-0.696 0.754-1.769 0.87-3.219l0.551-6.496h8.787v12.876h-2.436v-10.701h-4.205l-0.319 4.292c-0.116 1.508-0.367 2.7163-0.754 3.625-0.367 0.9087-0.918 1.595-1.653 2.059-0.734 0.464-1.72 0.7637-2.958 0.899l-0.29-2.146zm27.832-10.904v12.876h-2.407v-6.902c0-0.638 9e-3 -1.1213 0.029-1.45-0.348 0.4447-0.745 0.9087-1.189 1.392l-6.612 6.96h-0.928v-12.876h2.436v6.67c0 0.5607-0.029 1.1213-0.087 1.682 0.464-0.5413 0.947-1.0827 1.45-1.624l6.38-6.728h0.928zm14.83 12.731v0.145h-2.9l-5.365-5.742v5.742h-2.436v-12.876h2.436v5.394l4.901-5.394h2.842v0.116l-5.597 6.09 6.119 6.525zm6.86-12.905c1.566 0 2.803 0.406 3.712 1.218 0.908 0.7927 1.363 1.914 1.363 3.364v8.468h-1.682l-0.435-2.059c-0.503 0.7153-1.151 1.276-1.943 1.682-0.793 0.406-1.721 0.609-2.784 0.609-1.257 0-2.253-0.319-2.987-0.957-0.735-0.638-1.102-1.5177-1.102-2.639 0-1.4307 0.58-2.552 1.74-3.364 1.179-0.812 2.745-1.218 4.698-1.218 0.754 0 1.44 0.029 2.059 0.087v-0.696c0-0.754-0.261-1.3243-0.783-1.711-0.522-0.406-1.238-0.609-2.146-0.609-1.257 0-2.649 0.3577-4.176 1.073l-0.754-1.972c1.856-0.8507 3.596-1.276 5.22-1.276zm-1.218 11.252c1.14 0 2.059-0.3867 2.755-1.16 0.715-0.7733 1.092-1.798 1.131-3.074-0.542-0.0773-1.141-0.116-1.798-0.116-1.354 0-2.407 0.232-3.161 0.696-0.735 0.4447-1.102 1.073-1.102 1.885 0 0.5607 0.183 0.9957 0.551 1.305 0.386 0.3093 0.928 0.464 1.624 0.464zm23.068-0.348v5.51h-2.291v-3.364h-10.527v-12.876h2.436v10.73h6.148v-10.73h2.407v10.73h1.827zm13.752-10.73v12.876h-2.407v-6.902c0-0.638 9e-3 -1.1213 0.029-1.45-0.348 0.4447-0.745 0.9087-1.189 1.392l-6.612 6.96h-0.928v-12.876h2.436v6.67c0 0.5607-0.029 1.1213-0.087 1.682 0.464-0.5413 0.947-1.0827 1.45-1.624l6.38-6.728h0.928zm15.236 0v12.876h-2.407v-6.902c0-0.638 0.01-1.1213 0.029-1.45-0.348 0.4447-0.744 0.9087-1.189 1.392l-6.612 6.96h-0.928v-12.876h2.436v6.67c0 0.5607-0.029 1.1213-0.087 1.682 0.464-0.5413 0.947-1.0827 1.45-1.624l6.38-6.728h0.928zm-194.46 36.235c0.696 0.232 1.247 0.609 1.653 1.131s0.609 1.1697 0.609 1.943c0 1.1213-0.387 2.001-1.16 2.639-0.773 0.6187-1.798 0.928-3.074 0.928h-6.351v-12.876h5.887c1.237 0 2.233 0.3093 2.987 0.928s1.131 1.45 1.131 2.494c0 1.2953-0.561 2.233-1.682 2.813zm-5.916-4.263v3.393h3.248c0.657 0 1.15-0.1643 1.479-0.493s0.493-0.7443 0.493-1.247c0-0.464-0.164-0.8507-0.493-1.16-0.329-0.3287-0.822-0.493-1.479-0.493h-3.248zm3.654 8.932c0.696 0 1.218-0.1643 1.566-0.493s0.522-0.7637 0.522-1.305c0-0.522-0.174-0.9473-0.522-1.276-0.348-0.348-0.87-0.522-1.566-0.522h-3.654v3.596h3.654zm19.985 2.32c-1.102 0-2.156-0.261-3.161-0.783-0.986-0.522-1.789-1.2953-2.407-2.32-0.619-1.0247-0.928-2.262-0.928-3.712 0-1.3727 0.299-2.5713 0.899-3.596 0.599-1.0247 1.401-1.8077 2.407-2.349 1.024-0.5413 2.136-0.812 3.335-0.812 1.817 0 3.383 0.5897 4.698 1.769l-1.276 1.653c-0.484-0.4253-0.986-0.7347-1.508-0.928s-1.122-0.29-1.798-0.29c-0.812 0-1.547 0.1933-2.204 0.58-0.658 0.3673-1.18 0.899-1.566 1.595-0.368 0.6767-0.551 1.4693-0.551 2.378 0 1.392 0.406 2.5133 1.218 3.364 0.812 0.8313 1.836 1.247 3.074 1.247 0.734 0 1.382-0.116 1.943-0.348 0.56-0.232 1.102-0.5993 1.624-1.102l1.276 1.711c-0.716 0.6573-1.47 1.1503-2.262 1.479-0.793 0.3093-1.731 0.464-2.813 0.464zm13.372 0c-1.295 0-2.455-0.29-3.48-0.87-1.024-0.58-1.827-1.3823-2.407-2.407-0.56-1.0247-0.841-2.1943-0.841-3.509s0.281-2.4843 0.841-3.509c0.58-1.0247 1.383-1.827 2.407-2.407 1.025-0.58 2.185-0.87 3.48-0.87 1.315 0 2.485 0.29 3.509 0.87 1.044 0.58 1.847 1.3823 2.407 2.407 0.58 1.0247 0.87 2.1943 0.87 3.509s-0.29 2.4843-0.87 3.509c-0.56 1.0247-1.363 1.827-2.407 2.407-1.024 0.58-2.194 0.87-3.509 0.87zm0-2.204c1.296 0 2.34-0.4253 3.132-1.276 0.812-0.8507 1.218-1.9527 1.218-3.306s-0.406-2.4553-1.218-3.306c-0.792-0.8507-1.836-1.276-3.132-1.276-1.256 0-2.291 0.435-3.103 1.305-0.792 0.8507-1.189 1.943-1.189 3.277 0 1.3533 0.397 2.4553 1.189 3.306 0.812 0.8507 1.847 1.276 3.103 1.276zm22.876-0.29v5.51h-2.291v-3.364h-10.527v-12.876h2.436v10.73h6.148v-10.73h2.407v10.73h1.827zm13.751-10.73v12.876h-2.407v-6.902c0-0.638 0.01-1.1213 0.029-1.45-0.348 0.4447-0.744 0.9087-1.189 1.392l-6.612 6.96h-0.928v-12.876h2.436v6.67c0 0.5607-0.029 1.1213-0.087 1.682 0.464-0.5413 0.948-1.0827 1.45-1.624l6.38-6.728h0.928zm9.06-0.174c1.566 0 2.803 0.406 3.712 1.218 0.908 0.7927 1.363 1.914 1.363 3.364v8.468h-1.682l-0.435-2.059c-0.503 0.7153-1.151 1.276-1.943 1.682-0.793 0.406-1.721 0.609-2.784 0.609-1.257 0-2.253-0.319-2.987-0.957-0.735-0.638-1.102-1.5177-1.102-2.639 0-1.4307 0.58-2.552 1.74-3.364 1.179-0.812 2.745-1.218 4.698-1.218 0.754 0 1.44 0.029 2.059 0.087v-0.696c0-0.754-0.261-1.3243-0.783-1.711-0.522-0.406-1.238-0.609-2.146-0.609-1.257 0-2.649 0.3577-4.176 1.073l-0.754-1.972c1.856-0.8507 3.596-1.276 5.22-1.276zm-1.218 11.252c1.14 0 2.059-0.3867 2.755-1.16 0.715-0.7733 1.092-1.798 1.131-3.074-0.542-0.0773-1.141-0.116-1.798-0.116-1.354 0-2.407 0.232-3.161 0.696-0.735 0.4447-1.102 1.073-1.102 1.885 0 0.5607 0.183 0.9957 0.551 1.305 0.386 0.3093 0.928 0.464 1.624 0.464zm8.422-0.174c1.141-0.116 1.943-0.5123 2.407-1.189 0.464-0.696 0.754-1.769 0.87-3.219l0.551-6.496h8.787v12.876h-2.436v-10.701h-4.205l-0.319 4.292c-0.116 1.508-0.367 2.7163-0.754 3.625-0.367 0.9087-0.918 1.595-1.653 2.059s-1.721 0.7637-2.958 0.899l-0.29-2.146zm22.408-6.583c1.489 0 2.668 0.377 3.538 1.131s1.305 1.798 1.305 3.132c0 1.3533-0.435 2.407-1.305 3.161s-2.049 1.131-3.538 1.131h-5.684v-12.876h2.436v4.321h3.248zm-0.232 6.496c0.851 0 1.499-0.1837 1.943-0.551 0.464-0.3867 0.696-0.9473 0.696-1.682 0-0.7153-0.232-1.2567-0.696-1.624-0.444-0.3867-1.092-0.58-1.943-0.58h-3.016v4.437h3.016zm19.05-10.817v12.876h-2.436v-5.423h-6.206v5.423h-2.436v-12.876h2.436v5.278h6.206v-5.278h2.436zm9.814 4.321c1.489 0 2.668 0.377 3.538 1.131s1.305 1.798 1.305 3.132c0 1.3533-0.435 2.407-1.305 3.161s-2.049 1.131-3.538 1.131h-5.684v-12.876h2.436v4.321h3.248zm9.599-4.321v12.876h-2.436v-12.876h2.436zm-9.831 10.817c0.851 0 1.498-0.1837 1.943-0.551 0.464-0.3867 0.696-0.9473 0.696-1.682 0-0.7153-0.232-1.2567-0.696-1.624-0.445-0.3867-1.092-0.58-1.943-0.58h-3.016v4.437h3.016zm19.66-11.165c1.779 0 3.181 0.5703 4.205 1.711 1.025 1.1213 1.537 2.639 1.537 4.553 0 0.464-0.029 0.928-0.087 1.392h-9.773c0.155 1.1793 0.638 2.1073 1.45 2.784 0.832 0.6573 1.827 0.986 2.987 0.986 0.793 0 1.479-0.116 2.059-0.348s1.112-0.58 1.595-1.044l1.189 1.653c-1.411 1.2567-3.054 1.885-4.93 1.885-1.314 0-2.494-0.2803-3.538-0.841-1.024-0.58-1.827-1.3823-2.407-2.407-0.56-1.044-0.841-2.233-0.841-3.567 0-1.2567 0.281-2.3973 0.841-3.422 0.561-1.0247 1.334-1.8367 2.32-2.436 1.006-0.5993 2.137-0.899 3.393-0.899zm-0.029 2.146c-1.024 0-1.914 0.3287-2.668 0.986-0.734 0.638-1.198 1.508-1.392 2.61h7.511c-0.038-1.16-0.377-2.0493-1.015-2.668-0.618-0.6187-1.43-0.928-2.436-0.928zm21.183 11.426c-1.102 0-2.155-0.261-3.161-0.783-0.986-0.522-1.788-1.2953-2.407-2.32-0.618-1.0247-0.928-2.262-0.928-3.712 0-1.3727 0.3-2.5713 0.899-3.596 0.6-1.0247 1.402-1.8077 2.407-2.349 1.025-0.5413 2.137-0.812 3.335-0.812 1.818 0 3.384 0.5897 4.698 1.769l-1.276 1.653c-0.483-0.4253-0.986-0.7347-1.508-0.928s-1.121-0.29-1.798-0.29c-0.812 0-1.546 0.1933-2.204 0.58-0.657 0.3673-1.179 0.899-1.566 1.595-0.367 0.6767-0.551 1.4693-0.551 2.378 0 1.392 0.406 2.5133 1.218 3.364 0.812 0.8313 1.837 1.247 3.074 1.247 0.735 0 1.383-0.116 1.943-0.348 0.561-0.232 1.102-0.5993 1.624-1.102l1.276 1.711c-0.715 0.6573-1.469 1.1503-2.262 1.479-0.792 0.3093-1.73 0.464-2.813 0.464zm13.199-13.572c1.779 0 3.18 0.5703 4.205 1.711 1.025 1.1213 1.537 2.639 1.537 4.553 0 0.464-0.029 0.928-0.087 1.392h-9.773c0.155 1.1793 0.638 2.1073 1.45 2.784 0.831 0.6573 1.827 0.986 2.987 0.986 0.793 0 1.479-0.116 2.059-0.348s1.112-0.58 1.595-1.044l1.189 1.653c-1.411 1.2567-3.055 1.885-4.93 1.885-1.315 0-2.494-0.2803-3.538-0.841-1.025-0.58-1.827-1.3823-2.407-2.407-0.561-1.044-0.841-2.233-0.841-3.567 0-1.2567 0.28-2.3973 0.841-3.422s1.334-1.8367 2.32-2.436c1.005-0.5993 2.136-0.899 3.393-0.899zm-0.029 2.146c-1.025 0-1.914 0.3287-2.668 0.986-0.735 0.638-1.199 1.508-1.392 2.61h7.511c-0.039-1.16-0.377-2.0493-1.015-2.668-0.619-0.6187-1.431-0.928-2.436-0.928zm11.194 0.348h-3.886v-2.146h10.208v2.146h-3.886v10.73h-2.436v-10.73zm20-2.146v12.876h-2.407v-6.902c0-0.638 0.01-1.1213 0.029-1.45-0.348 0.4447-0.744 0.9087-1.189 1.392l-6.612 6.96h-0.928v-12.876h2.436v6.67c0 0.5607-0.029 1.1213-0.087 1.682 0.464-0.5413 0.948-1.0827 1.45-1.624l6.38-6.728h0.928zm15.571 13.195c-1.198 0-2.329-0.261-3.393-0.783-1.044-0.522-1.933-1.2373-2.668-2.146l1.682-1.537c1.257 1.392 2.697 2.088 4.321 2.088 1.334 0 2.398-0.3287 3.19-0.986 0.793-0.6573 1.189-1.4983 1.189-2.523 0-1.218-0.435-2.0783-1.305-2.581-0.85-0.522-1.885-0.783-3.103-0.783h-2.407v-2.262h2.088c1.257 0 2.204-0.3093 2.842-0.928 0.658-0.6187 0.986-1.3437 0.986-2.175s-0.309-1.5177-0.928-2.059c-0.599-0.5413-1.401-0.812-2.407-0.812-0.792 0-1.517 0.1643-2.175 0.493-0.638 0.3287-1.266 0.783-1.885 1.363l-1.537-1.479c1.605-1.798 3.538-2.697 5.8-2.697 1.122 0 2.117 0.2223 2.987 0.667 0.87 0.4253 1.537 1.015 2.001 1.769 0.484 0.7347 0.725 1.566 0.725 2.494 0 0.87-0.241 1.7013-0.725 2.494-0.483 0.7927-1.169 1.4017-2.059 1.827 1.238 0.3867 2.166 1.0247 2.784 1.914 0.619 0.8893 0.928 1.8753 0.928 2.958 0 1.102-0.29 2.088-0.87 2.958-0.56 0.8507-1.372 1.5177-2.436 2.001-1.044 0.4833-2.252 0.725-3.625 0.725zm12.162 0c-0.464 0-0.87-0.145-1.218-0.435-0.329-0.29-0.493-0.7057-0.493-1.247s0.164-0.957 0.493-1.247c0.348-0.29 0.754-0.435 1.218-0.435 0.483 0 0.889 0.145 1.218 0.435s0.493 0.7057 0.493 1.247-0.164 0.957-0.493 1.247-0.735 0.435-1.218 0.435zm12.23 0c-1.411 0-2.639-0.3963-3.683-1.189-1.044-0.812-1.846-1.9623-2.407-3.451-0.541-1.508-0.812-3.2673-0.812-5.278s0.271-3.7603 0.812-5.249c0.561-1.4887 1.363-2.6293 2.407-3.422 1.044-0.812 2.272-1.218 3.683-1.218s2.639 0.406 3.683 1.218c1.044 0.7927 1.837 1.9333 2.378 3.422 0.561 1.4887 0.841 3.2383 0.841 5.249s-0.28 3.77-0.841 5.278c-0.541 1.4887-1.334 2.639-2.378 3.451-1.044 0.7927-2.272 1.189-3.683 1.189zm0-2.378c1.353 0 2.397-0.6767 3.132-2.03 0.754-1.3533 1.131-3.19 1.131-5.51s-0.377-4.1567-1.131-5.51c-0.735-1.3533-1.779-2.03-3.132-2.03s-2.407 0.6767-3.161 2.03c-0.735 1.3533-1.102 3.19-1.102 5.51s0.367 4.1567 1.102 5.51c0.754 1.3533 1.808 2.03 3.161 2.03z" />
  <path
     id="path6"
     fill="#3B3B3B"
     d="m93.342 49.029c0.2949 0 0.4588-0.164 0.4588-0.4592v-6.134c1.4417 1.1808 3.1128 1.6401 5.2099 1.6401 5.3081 0 9.1421-3.6739 9.1421-9.1847s-3.867-9.2174-9.1421-9.2174c-2.0971 0-4.0631 0.656-5.4065 1.9681l-0.2294-0.0328-0.2949-1.2793c-0.0656-0.2624-0.2294-0.3936-0.4915-0.3936h-2.1299c-0.2949 0-0.4587 0.164-0.4587 0.4592v22.174c0 0.2952 0.1638 0.4592 0.4587 0.4592h2.8835zm0.4588-17.648c1.4089-1.5417 3.0145-2.0994 5.2099-2.0994 3.1131 0 5.3741 2.165 5.3741 5.6092 0 3.4115-2.261 5.5764-5.3741 5.5764-2.1299 0-3.8665-0.6888-5.2099-2.0337v-7.0525z" />
  <path
     id="path8"
     fill="#3B3B3B"
     d="m123.46 41.714 0.819 2.0666c0.098 0.2624 0.295 0.3608 0.557 0.2624l2.326-0.7545c0.361-0.0984 0.394-0.3936 0.295-0.656l-0.426-1.3777c-0.36-1.1809-0.426-2.3946-0.426-3.7067v-5.7076c0-4.4283-3.506-6.1668-7.372-6.1668-3.277 0-5.505 0.8856-7.7 2.4929-0.23 0.164-0.295 0.4921-0.066 0.7545l1.278 1.8041c0.164 0.2296 0.524 0.2624 0.786 0.0984 1.835-1.1481 3.31-1.5745 5.702-1.5745 1.966 0 3.571 0.6233 3.571 2.165v0.3936l-5.767 0.7545c-4.03 0.5248-6.422 2.6241-6.422 5.9372 0 3.3458 2.621 5.5764 6.39 5.5764 2.621 0 4.685-0.8201 6.291-2.3618h0.164zm-0.656-3.7067c-1.147 1.5417-2.916 2.493-5.406 2.493-2.065 0-2.982-0.8528-2.982-2.1977 0-1.1481 0.819-2.0338 2.621-2.329l5.767-0.9513v2.985z" />
  <path
     id="path10"
     fill="#3B3B3B"
     d="m131.26 25.936c-0.295 0-0.458 0.164-0.458 0.4592v16.959c0 0.2952 0.229 0.4593 0.458 0.4593h2.884c0.295 0 0.458-0.1641 0.458-0.4593v-11.776c1.147-1.5417 2.622-2.329 4.424-2.329 2.195 0 3.277 1.4433 3.801 3.3131 0.098 0.2952 0.295 0.3608 0.59 0.2624l2.588-0.8857c0.262-0.0984 0.361-0.2952 0.295-0.6232-0.688-3.2475-3.178-5.642-6.914-5.642-1.966 0-3.506 0.7216-4.784 2.0009h-0.163l-0.328-1.3449c-0.066-0.2624-0.229-0.3936-0.459-0.3936h-2.392z" />
  <path
     id="path12"
     fill="#3B3B3B"
     d="m149.43 25.936c-0.295 0-0.459 0.164-0.459 0.4592v16.959c0 0.2952 0.229 0.4593 0.459 0.4593h2.883c0.295 0 0.459-0.1641 0.459-0.4593v-11.776c1.147-1.5417 2.621-2.329 4.423-2.329 2.196 0 3.277 1.4433 3.801 3.3131 0.099 0.2952 0.295 0.3608 0.59 0.2624l2.589-0.8857c0.262-0.0984 0.36-0.2952 0.295-0.6232-0.689-3.2475-3.179-5.642-6.914-5.642-1.966 0-3.506 0.7216-4.784 2.0009h-0.164l-0.328-1.3449c-0.065-0.2624-0.229-0.3936-0.458-0.3936h-2.392z" />
  <path
     id="path14"
     fill="#3B3B3B"
     d="m175.9 29.249c3.244 0 5.538 2.329 5.538 5.642 0 3.2474-2.294 5.6092-5.538 5.6092-3.277 0-5.57-2.3618-5.57-5.6092 0-3.313 2.293-5.642 5.57-5.642zm-9.404 5.642c0 5.2812 4.227 9.1847 9.404 9.1847 5.144 0 9.371-3.9035 9.371-9.1847 0-5.2484-4.227-9.2174-9.371-9.2174-5.177 0-9.404 3.969-9.404 9.2174z" />
  <path
     id="path16"
     fill="#3B3B3B"
     d="m189.29 26.002-2.13 0.1968c-0.262 0.0328-0.393 0.1968-0.393 0.4264v2.3946c0 0.2952 0.164 0.4592 0.458 0.4592h2.032v8.5942c0 3.5099 1.704 6.0029 5.636 6.0029 1.671 0 2.916-0.3609 4.128-1.1481 0.295-0.164 0.361-0.3608 0.23-0.6561l-0.885-2.0993c-0.098-0.2296-0.295-0.3608-0.655-0.1968-0.688 0.3608-1.475 0.5248-2.359 0.5248-1.409 0-2.294-0.8528-2.294-2.5258v-8.4958h4.849c0.295 0 0.459-0.164 0.459-0.4592v-2.6242c0-0.2952-0.164-0.4592-0.459-0.4592h-4.849v-3.4771c0-0.2952-0.229-0.4592-0.459-0.4592h-2.49c-0.262 0-0.426 0.164-0.459 0.4592l-0.36 3.5427z" />
  <path
     id="path18"
     fill="#3B3B3B"
     d="m93.345 80c0.2952 0 0.4591-0.1674 0.4591-0.4688v-6.2618c1.443 1.2055 3.1155 1.6743 5.2143 1.6743 5.3126 0 9.1496-3.7504 9.1496-9.3761 0-5.6255-3.87-9.4094-9.1496-9.4094-2.0988 0-4.0665 0.6697-5.411 2.0091l-0.2296-0.0335-0.2951-1.3059c-0.0656-0.2679-0.2296-0.4018-0.4919-0.4018h-2.1317c-0.2951 0-0.4591 0.1674-0.4591 0.4688v22.636c0 0.3014 0.164 0.4688 0.4591 0.4688h2.8859zm0.4591-18.015c1.4102-1.5738 3.0171-2.1431 5.2143-2.1431 3.1156 0 5.3786 2.2101 5.3786 5.726 0 3.4826-2.263 5.6926-5.3786 5.6926-2.1316 0-3.8697-0.7032-5.2143-2.0761v-7.1994z" />
  <path
     id="path20"
     fill="#3B3B3B"
     d="m120.21 59.808c3.247 0 5.543 2.3775 5.543 5.7595 0 3.3151-2.296 5.7261-5.543 5.7261-3.279 0-5.575-2.411-5.575-5.7261 0-3.382 2.296-5.7595 5.575-5.7595zm-9.412 5.7595c0 5.3913 4.231 9.3761 9.412 9.3761 5.149 0 9.379-3.9848 9.379-9.3761 0-5.3577-4.23-9.4094-9.379-9.4094-5.181 0-9.412 4.0517-9.412 9.4094z" />
  <path
     id="path22"
     fill="#3B3B3B"
     d="m139.55 56.158c-4.296 0-7.411 2.1096-7.411 5.4247 0 3.7838 2.919 5.1233 7.313 5.4916 3.312 0.3014 4.558 0.8706 4.558 2.1766 0 1.239-1.246 2.0761-4.001 2.0761-2.59 0-4.296-0.6362-6.099-2.0761-0.23-0.2009-0.459-0.1674-0.656 0.1004l-1.541 2.1096c-0.197 0.2679-0.197 0.5023 0.032 0.6698 2.361 2.0091 4.919 2.8128 8.199 2.8128 4.493 0 7.838-2.1096 7.838-5.7596 0-3.8174-3.313-5.3912-7.904-5.8265-2.984-0.3014-3.968-0.8371-3.968-1.9087 0-1.038 1.214-1.6743 3.444-1.6743 2.262 0 4.164 0.6697 5.64 1.8752 0.263 0.2344 0.492 0.2009 0.689-0.0335l1.64-2.0761c0.164-0.2344 0.131-0.4353-0.099-0.6027-2.099-1.7748-4.788-2.7793-7.674-2.7793z" />
  <path
     id="path24"
     fill="#3B3B3B"
     d="m152.13 56.493-2.132 0.2009c-0.262 0.0335-0.393 0.201-0.393 0.4354v2.4444c0 0.3014 0.164 0.4688 0.459 0.4688h2.033v8.7733c0 3.5829 1.706 6.1279 5.641 6.1279 1.672 0 2.919-0.3684 4.132-1.172 0.295-0.1675 0.361-0.3684 0.23-0.6698l-0.886-2.143c-0.098-0.2345-0.295-0.3684-0.656-0.201-0.688 0.3684-1.475 0.5358-2.361 0.5358-1.41 0-2.296-0.8706-2.296-2.5784v-8.6728h4.854c0.295 0 0.459-0.1674 0.459-0.4688v-2.6788c0-0.3014-0.164-0.4688-0.459-0.4688h-4.854v-3.5495c0-0.3014-0.229-0.4688-0.459-0.4688h-2.492c-0.262 0-0.426 0.1674-0.459 0.4688l-0.361 3.6164z" />
  <path
     id="path26"
     fill="#3B3B3B"
     d="m179.54 69.418c-0.164-0.2009-0.361-0.2009-0.525-0.0335-1.705 1.4399-3.476 1.9087-5.706 1.9087-2.886 0-4.919-1.6073-5.542-3.9178h14.036c0.262 0 0.393-0.1674 0.393-0.4688v-1.3395c0-5.4581-3.738-9.4094-9.051-9.4094-5.345 0-9.346 3.9513-9.346 9.4094 0 5.3913 3.902 9.3761 9.51 9.3761 2.624 0 5.411-0.7702 7.772-2.8128 0.164-0.1675 0.197-0.3684 0.033-0.5358l-1.574-2.1766zm-6.395-9.6104c2.591 0 4.919 1.6073 5.182 3.9513h-10.593c0.525-2.3105 2.755-3.9513 5.411-3.9513z" />
  <path
     id="path28"
     fill="#3B3B3B"
     d="m185.93 56.426c-0.295 0-0.459 0.1674-0.459 0.4688v17.312c0 0.3013 0.229 0.4688 0.459 0.4688h2.886c0.295 0 0.459-0.1675 0.459-0.4688v-12.021c1.148-1.5738 2.623-2.3775 4.427-2.3775 2.197 0 3.279 1.4734 3.804 3.3821 0.099 0.3013 0.295 0.3683 0.59 0.2679l2.591-0.9042c0.263-0.1004 0.361-0.3013 0.295-0.6362-0.688-3.3151-3.181-5.7595-6.919-5.7595-1.968 0-3.509 0.7367-4.788 2.0426h-0.164l-0.328-1.3729c-0.066-0.2679-0.23-0.4018-0.459-0.4018h-2.394z" />
  <path
     id="path30"
     fill="url(#f)"
     d="m50 4.77e-7c-22.091-2.6344e-7 -40 17.909-40 40h40v-40z" />
  <path
     id="path32"
     fill="url(#a)"
     d="m10 90c0 5.5229 4.4772 10 10 10v-10h-10z" />
  <path
     id="path34"
     stroke-width="1.0015"
     fill="url(#e)"
     d="m20 90c16.568 0 30-13.473 30-30.093h-30z" />
  <path
     id="path36"
     fill="url(#a)"
     d="m50 10c-16.568 0-30 13.432-30 30h30v-30z" />
  <path
     id="path38"
     stroke-width="1.0139"
     fill="url(#d)"
     d="m20 39.44h30v20.56h-30z" />
  <path
     id="path40"
     stroke-width="1.0027"
     fill="url(#c)"
     d="m0 50c-9.7082e-7 11.046 9.0023 20 20.107 20v-20z" />
  <path
     id="path42"
     fill="url(#a)"
     d="m20 50h10v20h-10v-20z" />
  <path
     id="path44"
     fill="url(#b)"
     d="m70 30c0-11.046-8.9543-20-20-20v20h20z" />
  <path
     id="path46"
     fill="url(#b)"
     d="m50 45c5.5228 0 10-4.4772 10-10h-10v10z" />
  <circle
     id="circle48"
     fill="#fff"
     r="5"
     cy="25"
     cx="40" />
  <line
     id="line50"
     stroke-width="2"
     stroke="#3B3B3B"
     y2="100"
     y1="4.3711e-8"
     x2="226"
     x1="226" />
  <defs
     id="defs224">
    <linearGradient
       gradientUnits="userSpaceOnUse"
       y2="40"
       y1="40"
       x2="12.989"
       x1="44.315"
       id="f">
      <stop
         id="stop52"
         offset="0"
         stop-color="#1FA2FF" />
      <stop
         id="stop54"
         offset=".5"
         stop-color="#12D8FA" />
      <stop
         id="stop56"
         offset="1"
         stop-color="#A6FFCB" />
    </linearGradient>
    <linearGradient
       gradientUnits="userSpaceOnUse"
       y2="-5.409"
       y1="92.375"
       x2="23.504"
       x1="3.2"
       id="a">
      <stop
         id="stop59"
         offset="0"
         stop-color="#20E2AC" />
      <stop
         id="stop61"
         offset=".066667"
         stop-color="#20E0AC" />
      <stop
         id="stop63"
         offset=".13333"
         stop-color="#22DCAE" />
      <stop
         id="stop65"
         offset=".2"
         stop-color="#24D3B0" />
      <stop
         id="stop67"
         offset=".26667"
         stop-color="#28C8B2" />
      <stop
         id="stop69"
         offset=".33333"
         stop-color="#2CB9B6" />
      <stop
         id="stop71"
         offset=".4"
         stop-color="#31A7BA" />
      <stop
         id="stop73"
         offset=".46667"
         stop-color="#3793BF" />
      <stop
         id="stop75"
         offset=".53333"
         stop-color="#3D7EC4" />
      <stop
         id="stop77"
         offset=".6"
         stop-color="#436AC9" />
      <stop
         id="stop79"
         offset=".66667"
         stop-color="#4858CD" />
      <stop
         id="stop81"
         offset=".73333"
         stop-color="#4C49D1" />
      <stop
         id="stop83"
         offset=".8"
         stop-color="#503ED3" />
      <stop
         id="stop85"
         offset=".86667"
         stop-color="#5235D5" />
      <stop
         id="stop87"
         offset=".93333"
         stop-color="#5431D7" />
      <stop
         id="stop89"
         offset="1"
         stop-color="#542FD7" />
    </linearGradient>
    <linearGradient
       gradientUnits="userSpaceOnUse"
       gradientTransform="matrix(1 0 0 1.0031 0 -.27817)"
       y2="-5.409"
       y1="92.375"
       x2="23.504"
       x1="3.2"
       id="e">
      <stop
         id="stop92"
         offset="0"
         stop-color="#20E2AC" />
      <stop
         id="stop94"
         offset=".066667"
         stop-color="#20E0AC" />
      <stop
         id="stop96"
         offset=".13333"
         stop-color="#22DCAE" />
      <stop
         id="stop98"
         offset=".2"
         stop-color="#24D3B0" />
      <stop
         id="stop100"
         offset=".26667"
         stop-color="#28C8B2" />
      <stop
         id="stop102"
         offset=".33333"
         stop-color="#2CB9B6" />
      <stop
         id="stop104"
         offset=".4"
         stop-color="#31A7BA" />
      <stop
         id="stop106"
         offset=".46667"
         stop-color="#3793BF" />
      <stop
         id="stop108"
         offset=".53333"
         stop-color="#3D7EC4" />
      <stop
         id="stop110"
         offset=".6"
         stop-color="#436AC9" />
      <stop
         id="stop112"
         offset=".66667"
         stop-color="#4858CD" />
      <stop
         id="stop114"
         offset=".73333"
         stop-color="#4C49D1" />
      <stop
         id="stop116"
         offset=".8"
         stop-color="#503ED3" />
      <stop
         id="stop118"
         offset=".86667"
         stop-color="#5235D5" />
      <stop
         id="stop120"
         offset=".93333"
         stop-color="#5431D7" />
      <stop
         id="stop122"
         offset="1"
         stop-color="#542FD7" />
    </linearGradient>
    <linearGradient
       gradientUnits="userSpaceOnUse"
       gradientTransform="matrix(1 0 0 1.028 0 -1.6787)"
       y2="-5.409"
       y1="92.375"
       x2="23.504"
       x1="3.2"
       id="d">
      <stop
         id="stop125"
         offset="0"
         stop-color="#20E2AC" />
      <stop
         id="stop127"
         offset=".066667"
         stop-color="#20E0AC" />
      <stop
         id="stop129"
         offset=".13333"
         stop-color="#22DCAE" />
      <stop
         id="stop131"
         offset=".2"
         stop-color="#24D3B0" />
      <stop
         id="stop133"
         offset=".26667"
         stop-color="#28C8B2" />
      <stop
         id="stop135"
         offset=".33333"
         stop-color="#2CB9B6" />
      <stop
         id="stop137"
         offset=".4"
         stop-color="#31A7BA" />
      <stop
         id="stop139"
         offset=".46667"
         stop-color="#3793BF" />
      <stop
         id="stop141"
         offset=".53333"
         stop-color="#3D7EC4" />
      <stop
         id="stop143"
         offset=".6"
         stop-color="#436AC9" />
      <stop
         id="stop145"
         offset=".66667"
         stop-color="#4858CD" />
      <stop
         id="stop147"
         offset=".73333"
         stop-color="#4C49D1" />
      <stop
         id="stop149"
         offset=".8"
         stop-color="#503ED3" />
      <stop
         id="stop151"
         offset=".86667"
         stop-color="#5235D5" />
      <stop
         id="stop153"
         offset=".93333"
         stop-color="#5431D7" />
      <stop
         id="stop155"
         offset="1"
         stop-color="#542FD7" />
    </linearGradient>
    <linearGradient
       gradientUnits="userSpaceOnUse"
       gradientTransform="scale(1.0054 1)"
       y2="-5.409"
       y1="92.375"
       x2="23.504"
       x1="3.2"
       id="c">
      <stop
         id="stop158"
         offset="0"
         stop-color="#20E2AC" />
      <stop
         id="stop160"
         offset=".066667"
         stop-color="#20E0AC" />
      <stop
         id="stop162"
         offset=".13333"
         stop-color="#22DCAE" />
      <stop
         id="stop164"
         offset=".2"
         stop-color="#24D3B0" />
      <stop
         id="stop166"
         offset=".26667"
         stop-color="#28C8B2" />
      <stop
         id="stop168"
         offset=".33333"
         stop-color="#2CB9B6" />
      <stop
         id="stop170"
         offset=".4"
         stop-color="#31A7BA" />
      <stop
         id="stop172"
         offset=".46667"
         stop-color="#3793BF" />
      <stop
         id="stop174"
         offset=".53333"
         stop-color="#3D7EC4" />
      <stop
         id="stop176"
         offset=".6"
         stop-color="#436AC9" />
      <stop
         id="stop178"
         offset=".66667"
         stop-color="#4858CD" />
      <stop
         id="stop180"
         offset=".73333"
         stop-color="#4C49D1" />
      <stop
         id="stop182"
         offset=".8"
         stop-color="#503ED3" />
      <stop
         id="stop184"
         offset=".86667"
         stop-color="#5235D5" />
      <stop
         id="stop186"
         offset=".93333"
         stop-color="#5431D7" />
      <stop
         id="stop188"
         offset="1"
         stop-color="#542FD7" />
    </linearGradient>
    <linearGradient
       gradientUnits="userSpaceOnUse"
       y2="45"
       y1="10"
       x2="74.615"
       x1="74.615"
       id="b">
      <stop
         id="stop191"
         offset="0"
         stop-color="#FF52A1" />
      <stop
         id="stop193"
         offset=".066667"
         stop-color="#FF53A0" />
      <stop
         id="stop195"
         offset=".13333"
         stop-color="#FF579D" />
      <stop
         id="stop197"
         offset=".2"
         stop-color="#FF5D97" />
      <stop
         id="stop199"
         offset=".26667"
         stop-color="#FE668F" />
      <stop
         id="stop201"
         offset=".33333"
         stop-color="#FE7184" />
      <stop
         id="stop203"
         offset=".4"
         stop-color="#FE7E78" />
      <stop
         id="stop205"
         offset=".46667"
         stop-color="#FD8D6B" />
      <stop
         id="stop207"
         offset=".53333"
         stop-color="#FD9D5C" />
      <stop
         id="stop209"
         offset=".6"
         stop-color="#FCAC4F" />
      <stop
         id="stop211"
         offset=".66667"
         stop-color="#FCB943" />
      <stop
         id="stop213"
         offset=".73333"
         stop-color="#FCC438" />
      <stop
         id="stop215"
         offset=".8"
         stop-color="#FBCD30" />
      <stop
         id="stop217"
         offset=".86667"
         stop-color="#FBD32A" />
      <stop
         id="stop219"
         offset=".93333"
         stop-color="#FBD727" />
      <stop
         id="stop221"
         offset="1"
         stop-color="#FBD826" />
    </linearGradient>
  </defs>
</svg>
