<?xml version="1.0" encoding="UTF-8"?>
<svg enable-background="new 0 0 512 512" version="1.1" viewBox="0 0 512 512" xml:space="preserve" xmlns="http://www.w3.org/2000/svg" xmlns:cc="http://creativecommons.org/ns#" xmlns:dc="http://purl.org/dc/elements/1.1/" xmlns:rdf="http://www.w3.org/1999/02/22-rdf-syntax-ns#"><metadata><rdf:RDF><cc:Work rdf:about=""><dc:format>image/svg+xml</dc:format><dc:type rdf:resource="http://purl.org/dc/dcmitype/StillImage"/><dc:title/></cc:Work></rdf:RDF></metadata>
<g fill="#111">
   <g fill="#111">
      <path d="m396.8 141.33c-30.72 0-56.033 14.234-76.833 35.034l-60.563 55.502-28.128 31.162-51.461 52.702c-13.653 13.547-45.168 29.765-64.475 29.765-39.893 0-91.047-33.791-90.835-90.938 0.1956-52.74 50.086-89.605 89.979-89.605 19.307 0 47.349 14.478 61.962 28.984l27.732 23.188 19.5-18.192-26.987-23.893c-21.76-21.653-50.667-33.6-81.493-33.6-63.572-0.107-115.2 51.307-115.2 114.56s51.627 114.67 115.2 114.67c30.72 0 59.627-11.947 80.533-32.64l54.615-57.04 31.359-31.587 56.978-53.651c13.654-13.653 39.986-27.111 59.293-27.111 39.893 0 86.929 33.923 87.11 88.126 0.17765 53.009-47.619 86.262-87.512 86.262-19.307 0-50.079-11.226-64.692-25.626l-24.642-21.598-19.921 17.479 26.987 23.893c21.76 21.653 50.667 33.493 81.387 33.493 63.679 1e-3 115.31-51.413 115.31-114.67s-51.627-114.67-115.2-114.67z" fill="#111"/>
   </g>
</g>















</svg>
