<svg width="301" height="57" viewBox="0 0 301 57" fill="none" xmlns="http://www.w3.org/2000/svg">
<path d="M152.426 12.67L158.168 24.964V25H156.458L155.306 22.498H149.042L147.89 25H146.18V24.964L151.922 12.67H152.426ZM152.174 15.424C151.85 16.252 151.58 16.906 151.364 17.386L149.654 21.112H154.694L152.984 17.386C152.756 16.882 152.486 16.228 152.174 15.424ZM164.784 20.878C165.72 21.178 166.188 21.814 166.188 22.786C166.188 23.482 165.948 24.028 165.468 24.424C164.988 24.808 164.352 25 163.56 25H159.618V17.008H163.272C164.04 17.008 164.658 17.2 165.126 17.584C165.594 17.968 165.828 18.484 165.828 19.132C165.828 19.936 165.48 20.518 164.784 20.878ZM163.128 18.232H161.112V20.338H163.128C163.536 20.338 163.842 20.236 164.046 20.032C164.25 19.828 164.352 19.57 164.352 19.258C164.352 18.97 164.25 18.73 164.046 18.538C163.842 18.334 163.536 18.232 163.128 18.232ZM163.38 23.776C163.812 23.776 164.136 23.674 164.352 23.47C164.568 23.266 164.676 22.996 164.676 22.66C164.676 22.336 164.568 22.072 164.352 21.868C164.136 21.652 163.812 21.544 163.38 21.544H161.112V23.776H163.38ZM169.356 25V18.34H166.944V17.008H173.28V18.34H170.868V25H169.356ZM178.178 25.216C176.954 25.216 175.952 24.826 175.172 24.046C174.392 23.254 174.002 22.24 174.002 21.004C174.002 19.768 174.392 18.76 175.172 17.98C175.952 17.188 176.954 16.792 178.178 16.792C179.414 16.792 180.422 17.188 181.202 17.98C181.994 18.76 182.39 19.768 182.39 21.004C182.39 22.24 181.994 23.254 181.202 24.046C180.422 24.826 179.414 25.216 178.178 25.216ZM178.178 23.848C178.982 23.848 179.63 23.584 180.122 23.056C180.626 22.528 180.878 21.844 180.878 21.004C180.878 20.164 180.626 19.48 180.122 18.952C179.63 18.424 178.982 18.16 178.178 18.16C177.398 18.16 176.756 18.43 176.252 18.97C175.76 19.498 175.514 20.176 175.514 21.004C175.514 21.844 175.76 22.528 176.252 23.056C176.756 23.584 177.398 23.848 178.178 23.848ZM184.421 25V17.008H191.279V25H189.785V18.358H185.933V25H184.421ZM199.278 17.008H200.862V17.044L197.55 25.342C197.094 26.494 196.584 27.352 196.02 27.916C195.468 28.492 194.676 28.864 193.644 29.032L193.374 27.79C194.142 27.67 194.712 27.4 195.084 26.98C195.468 26.572 195.834 25.942 196.182 25.09L196.272 24.892L192.816 17.044V17.008H194.418L196.038 20.842C196.446 21.826 196.752 22.636 196.956 23.272C197.088 22.828 197.37 22.018 197.802 20.842L199.278 17.008ZM206.634 16.954C207.702 16.954 208.608 17.314 209.352 18.034C210.096 18.754 210.468 19.744 210.468 21.004C210.468 22.324 210.072 23.35 209.28 24.082C208.5 24.814 207.504 25.18 206.292 25.18C205.044 25.18 204.036 24.754 203.268 23.902C202.5 23.038 202.116 21.784 202.116 20.14V19.132C202.116 18.1 202.308 17.116 202.692 16.18C203.076 15.232 203.676 14.488 204.492 13.948C205.128 13.516 205.944 13.156 206.94 12.868C207.936 12.568 208.632 12.292 209.028 12.04L209.568 13.39C209.076 13.714 208.362 14.014 207.426 14.29C206.49 14.554 205.788 14.836 205.32 15.136C204.336 15.76 203.748 16.87 203.556 18.466C204.324 17.458 205.35 16.954 206.634 16.954ZM206.292 23.812C207.132 23.812 207.78 23.554 208.236 23.038C208.704 22.51 208.938 21.838 208.938 21.022C208.938 20.242 208.704 19.594 208.236 19.078C207.768 18.562 207.132 18.304 206.328 18.304C205.584 18.304 204.96 18.568 204.456 19.096C203.964 19.624 203.718 20.29 203.718 21.094C203.718 21.922 203.958 22.582 204.438 23.074C204.93 23.566 205.548 23.812 206.292 23.812ZM211.029 25.108L210.849 23.776C211.557 23.704 212.055 23.458 212.343 23.038C212.631 22.606 212.811 21.94 212.883 21.04L213.225 17.008H218.679V25H217.167V18.358H214.557L214.359 21.022C214.251 22.402 213.951 23.398 213.459 24.01C212.967 24.622 212.157 24.988 211.029 25.108ZM227.547 17.008H228.123V25H226.629V20.716C226.629 20.32 226.635 20.02 226.647 19.816C226.431 20.092 226.185 20.38 225.909 20.68L221.805 25H221.229V17.008H222.741V21.148C222.741 21.508 222.723 21.856 222.687 22.192C222.975 21.856 223.275 21.52 223.587 21.184L227.547 17.008ZM233.53 20.86L237.328 24.91V25H235.528L232.198 21.436V25H230.686V17.008H232.198V20.356L235.24 17.008H237.004V17.08L233.53 20.86ZM241.586 16.9C242.558 16.9 243.326 17.152 243.89 17.656C244.454 18.148 244.736 18.844 244.736 19.744V25H243.692L243.422 23.722C242.774 24.67 241.796 25.144 240.488 25.144C239.708 25.144 239.09 24.946 238.634 24.55C238.178 24.154 237.95 23.608 237.95 22.912C237.95 22.024 238.31 21.328 239.03 20.824C239.762 20.32 240.734 20.068 241.946 20.068C242.414 20.068 242.84 20.086 243.224 20.122V19.69C243.224 19.222 243.062 18.868 242.738 18.628C242.414 18.376 241.97 18.25 241.406 18.25C240.626 18.25 239.762 18.472 238.814 18.916L238.346 17.692C239.498 17.164 240.578 16.9 241.586 16.9ZM240.83 23.884C241.538 23.884 242.108 23.644 242.54 23.164C242.984 22.684 243.218 22.048 243.242 21.256C242.906 21.208 242.534 21.184 242.126 21.184C241.286 21.184 240.632 21.328 240.164 21.616C239.708 21.892 239.48 22.282 239.48 22.786C239.48 23.134 239.594 23.404 239.822 23.596C240.062 23.788 240.398 23.884 240.83 23.884ZM254.014 23.668H255.148V27.088H253.726V25H247.192V17.008H248.704V23.668H252.52V17.008H254.014V23.668ZM263.108 17.008H263.684V25H262.19V20.716C262.19 20.32 262.196 20.02 262.208 19.816C261.992 20.092 261.746 20.38 261.47 20.68L257.366 25H256.79V17.008H258.302V21.148C258.302 21.508 258.284 21.856 258.248 22.192C258.536 21.856 258.836 21.52 259.148 21.184L263.108 17.008ZM272.565 17.008H273.141V25H271.647V20.716C271.647 20.32 271.653 20.02 271.665 19.816C271.449 20.092 271.203 20.38 270.927 20.68L266.823 25H266.247V17.008H267.759V21.148C267.759 21.508 267.741 21.856 267.705 22.192C267.993 21.856 268.293 21.52 268.605 21.184L272.565 17.008ZM152.444 39.878C153.38 40.178 153.848 40.814 153.848 41.786C153.848 42.482 153.608 43.028 153.128 43.424C152.648 43.808 152.012 44 151.22 44H147.278V36.008H150.932C151.7 36.008 152.318 36.2 152.786 36.584C153.254 36.968 153.488 37.484 153.488 38.132C153.488 38.936 153.14 39.518 152.444 39.878ZM150.788 37.232H148.772V39.338H150.788C151.196 39.338 151.502 39.236 151.706 39.032C151.91 38.828 152.012 38.57 152.012 38.258C152.012 37.97 151.91 37.73 151.706 37.538C151.502 37.334 151.196 37.232 150.788 37.232ZM151.04 42.776C151.472 42.776 151.796 42.674 152.012 42.47C152.228 42.266 152.336 41.996 152.336 41.66C152.336 41.336 152.228 41.072 152.012 40.868C151.796 40.652 151.472 40.544 151.04 40.544H148.772V42.776H151.04ZM163.444 44.216C162.376 44.216 161.434 43.844 160.618 43.1C159.814 42.356 159.412 41.318 159.412 39.986C159.412 38.714 159.808 37.7 160.6 36.944C161.404 36.176 162.382 35.792 163.534 35.792C164.662 35.792 165.634 36.158 166.45 36.89L165.658 37.916C165.082 37.412 164.398 37.16 163.606 37.16C162.838 37.16 162.196 37.418 161.68 37.934C161.176 38.45 160.924 39.134 160.924 39.986C160.924 40.85 161.176 41.546 161.68 42.074C162.184 42.59 162.82 42.848 163.588 42.848C164.428 42.848 165.166 42.548 165.802 41.948L166.594 43.01C165.718 43.814 164.668 44.216 163.444 44.216ZM171.745 44.216C170.521 44.216 169.519 43.826 168.739 43.046C167.959 42.254 167.569 41.24 167.569 40.004C167.569 38.768 167.959 37.76 168.739 36.98C169.519 36.188 170.521 35.792 171.745 35.792C172.981 35.792 173.989 36.188 174.769 36.98C175.561 37.76 175.957 38.768 175.957 40.004C175.957 41.24 175.561 42.254 174.769 43.046C173.989 43.826 172.981 44.216 171.745 44.216ZM171.745 42.848C172.549 42.848 173.197 42.584 173.689 42.056C174.193 41.528 174.445 40.844 174.445 40.004C174.445 39.164 174.193 38.48 173.689 37.952C173.197 37.424 172.549 37.16 171.745 37.16C170.965 37.16 170.323 37.43 169.819 37.97C169.327 38.498 169.081 39.176 169.081 40.004C169.081 40.844 169.327 41.528 169.819 42.056C170.323 42.584 170.965 42.848 171.745 42.848ZM184.809 42.668H185.943V46.088H184.521V44H177.987V36.008H179.499V42.668H183.315V36.008H184.809V42.668ZM193.903 36.008H194.479V44H192.985V39.716C192.985 39.32 192.991 39.02 193.003 38.816C192.787 39.092 192.541 39.38 192.265 39.68L188.161 44H187.585V36.008H189.097V40.148C189.097 40.508 189.079 40.856 189.043 41.192C189.331 40.856 189.631 40.52 189.943 40.184L193.903 36.008ZM200.102 35.9C201.074 35.9 201.842 36.152 202.406 36.656C202.97 37.148 203.252 37.844 203.252 38.744V44H202.208L201.938 42.722C201.29 43.67 200.312 44.144 199.004 44.144C198.224 44.144 197.606 43.946 197.15 43.55C196.694 43.154 196.466 42.608 196.466 41.912C196.466 41.024 196.826 40.328 197.546 39.824C198.278 39.32 199.25 39.068 200.462 39.068C200.93 39.068 201.356 39.086 201.74 39.122V38.69C201.74 38.222 201.578 37.868 201.254 37.628C200.93 37.376 200.486 37.25 199.922 37.25C199.142 37.25 198.278 37.472 197.33 37.916L196.862 36.692C198.014 36.164 199.094 35.9 200.102 35.9ZM199.346 42.884C200.054 42.884 200.624 42.644 201.056 42.164C201.5 41.684 201.734 41.048 201.758 40.256C201.422 40.208 201.05 40.184 200.642 40.184C199.802 40.184 199.148 40.328 198.68 40.616C198.224 40.892 197.996 41.282 197.996 41.786C197.996 42.134 198.11 42.404 198.338 42.596C198.578 42.788 198.914 42.884 199.346 42.884ZM204.753 44.108L204.573 42.776C205.281 42.704 205.779 42.458 206.067 42.038C206.355 41.606 206.535 40.94 206.607 40.04L206.949 36.008H212.403V44H210.891V37.358H208.281L208.083 40.022C207.975 41.402 207.675 42.398 207.183 43.01C206.691 43.622 205.881 43.988 204.753 44.108ZM218.482 38.69C219.406 38.69 220.138 38.924 220.678 39.392C221.218 39.86 221.488 40.508 221.488 41.336C221.488 42.176 221.218 42.83 220.678 43.298C220.138 43.766 219.406 44 218.482 44H214.954V36.008H216.466V38.69H218.482ZM218.338 42.722C219.43 42.722 219.976 42.26 219.976 41.336C219.976 40.424 219.43 39.968 218.338 39.968H216.466V42.722H218.338ZM228.65 36.008H230.162V44H228.65V40.634H224.798V44H223.286V36.008H224.798V39.284H228.65V36.008ZM236.253 38.69C237.177 38.69 237.909 38.924 238.449 39.392C238.989 39.86 239.259 40.508 239.259 41.336C239.259 42.176 238.989 42.83 238.449 43.298C237.909 43.766 237.177 44 236.253 44H232.725V36.008H234.237V38.69H236.253ZM240.699 36.008H242.211V44H240.699V36.008ZM236.109 42.722C237.201 42.722 237.747 42.26 237.747 41.336C237.747 40.424 237.201 39.968 236.109 39.968H234.237V42.722H236.109ZM248.312 35.792C249.416 35.792 250.286 36.146 250.922 36.854C251.558 37.55 251.876 38.492 251.876 39.68C251.876 39.968 251.858 40.256 251.822 40.544H245.756C245.864 41.276 246.17 41.852 246.674 42.272C247.19 42.68 247.802 42.884 248.51 42.884C249.422 42.884 250.178 42.596 250.778 42.02L251.516 43.046C250.64 43.826 249.62 44.216 248.456 44.216C247.208 44.216 246.194 43.826 245.414 43.046C244.634 42.254 244.244 41.234 244.244 39.986C244.244 38.798 244.628 37.802 245.396 36.998C246.164 36.194 247.136 35.792 248.312 35.792ZM248.294 37.124C247.658 37.124 247.106 37.328 246.638 37.736C246.182 38.132 245.894 38.672 245.774 39.356H250.436C250.412 38.636 250.202 38.084 249.806 37.7C249.422 37.316 248.918 37.124 248.294 37.124ZM261.442 44.216C260.374 44.216 259.432 43.844 258.616 43.1C257.812 42.356 257.41 41.318 257.41 39.986C257.41 38.714 257.806 37.7 258.598 36.944C259.402 36.176 260.38 35.792 261.532 35.792C262.66 35.792 263.632 36.158 264.448 36.89L263.656 37.916C263.08 37.412 262.396 37.16 261.604 37.16C260.836 37.16 260.194 37.418 259.678 37.934C259.174 38.45 258.922 39.134 258.922 39.986C258.922 40.85 259.174 41.546 259.678 42.074C260.182 42.59 260.818 42.848 261.586 42.848C262.426 42.848 263.164 42.548 263.8 41.948L264.592 43.01C263.716 43.814 262.666 44.216 261.442 44.216ZM269.635 35.792C270.739 35.792 271.609 36.146 272.245 36.854C272.881 37.55 273.199 38.492 273.199 39.68C273.199 39.968 273.181 40.256 273.145 40.544H267.079C267.187 41.276 267.493 41.852 267.997 42.272C268.513 42.68 269.125 42.884 269.833 42.884C270.745 42.884 271.501 42.596 272.101 42.02L272.839 43.046C271.963 43.826 270.943 44.216 269.779 44.216C268.531 44.216 267.517 43.826 266.737 43.046C265.957 42.254 265.567 41.234 265.567 39.986C265.567 38.798 265.951 37.802 266.719 36.998C267.487 36.194 268.459 35.792 269.635 35.792ZM269.617 37.124C268.981 37.124 268.429 37.328 267.961 37.736C267.505 38.132 267.217 38.672 267.097 39.356H271.759C271.735 38.636 271.525 38.084 271.129 37.7C270.745 37.316 270.241 37.124 269.617 37.124ZM276.565 44V37.34H274.153V36.008H280.489V37.34H278.077V44H276.565ZM288.403 36.008H288.979V44H287.485V39.716C287.485 39.32 287.491 39.02 287.503 38.816C287.287 39.092 287.041 39.38 286.765 39.68L282.661 44H282.085V36.008H283.597V40.148C283.597 40.508 283.579 40.856 283.543 41.192C283.831 40.856 284.131 40.52 284.443 40.184L288.403 36.008Z" fill="black"/>
<path d="M53.0714 27.9407C53.2391 27.9407 53.3322 27.8472 53.3322 27.679V24.1833C54.152 24.8563 55.1021 25.118 56.2944 25.118C59.3125 25.118 61.4923 23.0243 61.4923 19.8838C61.4923 16.7434 59.2939 14.631 56.2944 14.631C55.1021 14.631 53.9843 15.0049 53.2205 15.7526L53.0901 15.7339L52.9224 15.0049C52.8851 14.8553 52.792 14.7806 52.6429 14.7806H51.432C51.2643 14.7806 51.1711 14.874 51.1711 15.0423V27.679C51.1711 27.8472 51.2643 27.9407 51.432 27.9407H53.0714ZM53.3322 17.8837C54.1333 17.0051 55.0462 16.6873 56.2944 16.6873C58.0643 16.6873 59.3498 17.921 59.3498 19.8838C59.3498 21.8279 58.0643 23.0617 56.2944 23.0617C55.0835 23.0617 54.0961 22.6692 53.3322 21.9027V17.8837Z" fill="black"/>
<path d="M70.1981 23.7721L70.6639 24.9497C70.7197 25.0993 70.8315 25.1554 70.9806 25.0993L72.3033 24.6693C72.5082 24.6133 72.5269 24.445 72.471 24.2955L72.2288 23.5104C72.0239 22.8374 71.9866 22.1457 71.9866 21.398V18.1454C71.9866 15.6218 69.9932 14.631 67.7948 14.631C65.9318 14.631 64.6649 15.1357 63.4167 16.0517C63.2863 16.1452 63.249 16.3321 63.3794 16.4817L64.106 17.5098C64.1992 17.6406 64.4041 17.6593 64.5531 17.5659C65.5964 16.9116 66.4348 16.6686 67.7948 16.6686C68.9126 16.6686 69.8255 17.0238 69.8255 17.9023V18.1267L66.5466 18.5566C64.2551 18.8557 62.8951 20.0521 62.8951 21.9401C62.8951 23.8468 64.3855 25.118 66.528 25.118C68.0184 25.118 69.1921 24.6506 70.1049 23.7721H70.1981ZM69.8255 21.6597C69.1734 22.5383 68.1674 23.0804 66.7515 23.0804C65.5778 23.0804 65.0562 22.5944 65.0562 21.828C65.0562 21.1737 65.5219 20.669 66.5466 20.5007L69.8255 19.9586V21.6597Z" fill="black"/>
<path d="M74.6287 14.7806C74.4611 14.7806 74.3679 14.874 74.3679 15.0423V24.7067C74.3679 24.875 74.4983 24.9684 74.6287 24.9684H76.2682C76.4359 24.9684 76.529 24.875 76.529 24.7067V17.9958C77.1811 17.1172 78.0194 16.6686 79.0441 16.6686C80.2923 16.6686 80.9071 17.4911 81.2052 18.5566C81.2611 18.7249 81.3729 18.7622 81.5405 18.7062L83.0123 18.2014C83.1614 18.1454 83.2172 18.0332 83.18 17.8463C82.7888 15.9956 81.3729 14.631 79.249 14.631C78.1312 14.631 77.2556 15.0423 76.529 15.7713H76.4359L76.2496 15.0049C76.2123 14.8553 76.1191 14.7806 75.9887 14.7806H74.6287Z" fill="black"/>
<path d="M84.9627 14.7806C84.795 14.7806 84.7018 14.874 84.7018 15.0423V24.7067C84.7018 24.875 84.8323 24.9684 84.9627 24.9684H86.6021C86.7698 24.9684 86.8629 24.875 86.8629 24.7067V17.9958C87.515 17.1172 88.3534 16.6686 89.378 16.6686C90.6262 16.6686 91.241 17.4911 91.5391 18.5566C91.595 18.7249 91.7068 18.7622 91.8745 18.7062L93.3462 18.2014C93.4953 18.1454 93.5512 18.0332 93.5139 17.8463C93.1227 15.9956 91.7068 14.631 89.583 14.631C88.4651 14.631 87.5895 15.0423 86.8629 15.7713H86.7698L86.5835 15.0049C86.5462 14.8553 86.4531 14.7806 86.3227 14.7806H84.9627Z" fill="black"/>
<path d="M100.01 16.6686C101.854 16.6686 103.159 17.9958 103.159 19.8838C103.159 21.7345 101.854 23.0804 100.01 23.0804C98.147 23.0804 96.8429 21.7345 96.8429 19.8838C96.8429 17.9958 98.147 16.6686 100.01 16.6686ZM94.6632 19.8838C94.6632 22.8935 97.0665 25.118 100.01 25.118C102.935 25.118 105.338 22.8935 105.338 19.8838C105.338 16.8929 102.935 14.631 100.01 14.631C97.0665 14.631 94.6632 16.8929 94.6632 19.8838Z" fill="black"/>
<path d="M107.626 14.8179L106.415 14.9301C106.266 14.9488 106.191 15.0423 106.191 15.1731V16.5377C106.191 16.706 106.284 16.7994 106.452 16.7994H107.607V21.6971C107.607 23.6973 108.576 25.118 110.812 25.118C111.762 25.118 112.47 24.9124 113.159 24.4637C113.327 24.3702 113.364 24.2581 113.289 24.0898L112.786 22.8935C112.731 22.7626 112.619 22.6878 112.414 22.7813C112.023 22.9869 111.575 23.0804 111.072 23.0804C110.271 23.0804 109.768 22.5944 109.768 21.641V16.7994H112.526C112.693 16.7994 112.786 16.706 112.786 16.5377V15.0423C112.786 14.874 112.693 14.7806 112.526 14.7806H109.768V12.7991C109.768 12.6308 109.638 12.5374 109.508 12.5374H108.092C107.943 12.5374 107.849 12.6308 107.831 12.7991L107.626 14.8179Z" fill="black"/>
<path d="M53.073 45.5903C53.2408 45.5903 53.3341 45.4949 53.3341 45.3232V41.7547C54.1545 42.4417 55.1054 42.7088 56.2987 42.7088C59.3194 42.7088 61.5009 40.5715 61.5009 37.3656C61.5009 34.1597 59.3007 32.0034 56.2987 32.0034C55.1054 32.0034 53.9867 32.385 53.2222 33.1483L53.0917 33.1293L52.9238 32.385C52.8866 32.2324 52.7933 32.156 52.6442 32.156H51.4322C51.2644 32.156 51.1711 32.2514 51.1711 32.4232V45.3232C51.1711 45.4949 51.2644 45.5903 51.4322 45.5903H53.073ZM53.3341 35.3238C54.1358 34.4269 55.0495 34.1025 56.2987 34.1025C58.0701 34.1025 59.3567 35.3619 59.3567 37.3656C59.3567 39.3502 58.0701 40.6097 56.2987 40.6097C55.0868 40.6097 54.0985 40.209 53.3341 39.4266V35.3238Z" fill="black"/>
<path d="M68.3495 34.0834C70.1954 34.0834 71.5006 35.4383 71.5006 37.3656C71.5006 39.2548 70.1954 40.6288 68.3495 40.6288C66.4849 40.6288 65.1797 39.2548 65.1797 37.3656C65.1797 35.4383 66.4849 34.0834 68.3495 34.0834ZM62.9981 37.3656C62.9981 40.438 65.4034 42.7088 68.3495 42.7088C71.2769 42.7088 73.6822 40.438 73.6822 37.3656C73.6822 34.3124 71.2769 32.0034 68.3495 32.0034C65.4034 32.0034 62.9981 34.3124 62.9981 37.3656Z" fill="black"/>
<path d="M79.3422 32.0034C76.8996 32.0034 75.1283 33.2056 75.1283 35.0948C75.1283 37.2511 76.7877 38.0144 79.2863 38.2244C81.1695 38.3961 81.878 38.7205 81.878 39.4647C81.878 40.1708 81.1695 40.6479 79.6032 40.6479C78.1302 40.6479 77.1606 40.2853 76.1351 39.4647C76.0046 39.3502 75.8741 39.3693 75.7622 39.522L74.8859 40.7242C74.774 40.8769 74.774 41.0104 74.9045 41.1059C76.247 42.2508 77.7014 42.7088 79.566 42.7088C82.1204 42.7088 84.0223 41.5066 84.0223 39.4266C84.0223 37.2511 82.1391 36.3542 79.5287 36.1062C77.8319 35.9344 77.2725 35.6291 77.2725 35.0184C77.2725 34.4269 77.9624 34.0643 79.2303 34.0643C80.5169 34.0643 81.5983 34.446 82.4374 35.1329C82.5866 35.2665 82.7171 35.2474 82.829 35.1139L83.7613 33.9307C83.8545 33.7971 83.8358 33.6827 83.7053 33.5872C82.512 32.5759 80.983 32.0034 79.3422 32.0034Z" fill="black"/>
<path d="M86.4964 32.1942L85.2844 32.3087C85.1352 32.3278 85.0606 32.4232 85.0606 32.5568V33.9498C85.0606 34.1216 85.1539 34.217 85.3217 34.217H86.4777V39.2167C86.4777 41.2585 87.4473 42.7088 89.6848 42.7088C90.6357 42.7088 91.3443 42.4989 92.0342 42.0409C92.202 41.9455 92.2393 41.831 92.1647 41.6593L91.6613 40.438C91.6053 40.3044 91.4934 40.2281 91.2883 40.3235C90.8968 40.5334 90.4493 40.6288 89.9458 40.6288C89.1441 40.6288 88.6406 40.1326 88.6406 39.1594V34.217H91.4002C91.568 34.217 91.6613 34.1216 91.6613 33.9498V32.4232C91.6613 32.2514 91.568 32.156 91.4002 32.156H88.6406V30.1333C88.6406 29.9615 88.5101 29.8661 88.3796 29.8661H86.9625C86.8133 29.8661 86.7201 29.9615 86.7015 30.1333L86.4964 32.1942Z" fill="black"/>
<path d="M102.084 39.5602C101.99 39.4457 101.879 39.4457 101.785 39.5411C100.816 40.3616 99.8089 40.6288 98.541 40.6288C96.9002 40.6288 95.7441 39.7128 95.3898 38.3961H103.37C103.519 38.3961 103.594 38.3007 103.594 38.1289V37.3656C103.594 34.2551 101.468 32.0034 98.4478 32.0034C95.4085 32.0034 93.1337 34.2551 93.1337 37.3656C93.1337 40.438 95.3526 42.7088 98.541 42.7088C100.033 42.7088 101.618 42.2699 102.96 41.1059C103.053 41.0104 103.072 40.896 102.979 40.8005L102.084 39.5602ZM98.4478 34.0834C99.9208 34.0834 101.245 34.9994 101.394 36.3352H95.3712C95.6695 35.0184 96.9374 34.0834 98.4478 34.0834Z" fill="black"/>
<path d="M105.713 32.156C105.545 32.156 105.452 32.2514 105.452 32.4232V42.289C105.452 42.4607 105.582 42.5562 105.713 42.5562H107.353C107.521 42.5562 107.615 42.4607 107.615 42.289V35.4383C108.267 34.5414 109.106 34.0834 110.132 34.0834C111.381 34.0834 111.996 34.923 112.295 36.0108C112.351 36.1825 112.462 36.2207 112.63 36.1634L114.103 35.6482C114.252 35.5909 114.308 35.4764 114.271 35.2856C113.88 33.3964 112.462 32.0034 110.337 32.0034C109.218 32.0034 108.342 32.4232 107.615 33.1674H107.521L107.335 32.385C107.298 32.2324 107.204 32.156 107.074 32.156H105.713Z" fill="black"/>
<path d="M28.4283 1.93453e-05C15.8678 1.91952e-05 5.68555 10.2058 5.68555 22.7952L28.4283 22.7952L28.4283 1.93453e-05Z" fill="url(#paint0_linear_111_230)"/>
<path d="M5.68569 51.289C5.68569 54.4364 8.23125 56.9878 11.3714 56.9878L11.3714 51.289H5.68569Z" fill="url(#paint1_linear_111_230)"/>
<path d="M11.3714 51.289C20.7917 51.289 28.4284 43.6347 28.4284 34.1927H11.3714V51.289Z" fill="url(#paint2_linear_111_230)"/>
<path d="M28.4284 5.69873C19.0081 5.69873 11.3714 13.353 11.3714 22.7951H28.4284V5.69873Z" fill="url(#paint3_linear_111_230)"/>
<path d="M11.3714 22.7951H28.4284V34.1927H11.3714L11.3714 22.7951Z" fill="url(#paint4_linear_111_230)"/>
<path d="M0 28.4939C-5.49036e-07 34.7886 5.09114 39.8915 11.3714 39.8915L11.3714 28.4939H0Z" fill="url(#paint5_linear_111_230)"/>
<path d="M11.3714 28.4939H17.0571V39.8915H11.3714L11.3714 28.4939Z" fill="url(#paint6_linear_111_230)"/>
<path d="M39.7997 17.0963C39.7997 10.8016 34.7086 5.69873 28.4283 5.69873V17.0963H39.7997Z" fill="url(#paint7_linear_111_230)"/>
<path d="M28.4283 25.6445C31.5685 25.6445 34.114 23.0931 34.114 19.9457H28.4283L28.4283 25.6445Z" fill="url(#paint8_linear_111_230)"/>
<ellipse cx="22.7426" cy="14.2471" rx="2.84284" ry="2.84939" fill="white"/>
<line x1="128.928" y1="4.37114e-08" x2="128.928" y2="56.9879" stroke="black" stroke-width="2"/>
<defs>
<linearGradient id="paint0_linear_111_230" x1="25.1959" y1="22.7952" x2="7.38478" y2="22.7952" gradientUnits="userSpaceOnUse">
<stop stop-color="#1FA2FF"/>
<stop offset="0.5" stop-color="#12D8FA"/>
<stop offset="1" stop-color="#A6FFCB"/>
</linearGradient>
<linearGradient id="paint1_linear_111_230" x1="1.81942" y1="52.6425" x2="13.4148" y2="-3.07188" gradientUnits="userSpaceOnUse">
<stop stop-color="#20E2AC"/>
<stop offset="0.0666667" stop-color="#20E0AC"/>
<stop offset="0.133333" stop-color="#22DCAE"/>
<stop offset="0.2" stop-color="#24D3B0"/>
<stop offset="0.266667" stop-color="#28C8B2"/>
<stop offset="0.333333" stop-color="#2CB9B6"/>
<stop offset="0.4" stop-color="#31A7BA"/>
<stop offset="0.466667" stop-color="#3793BF"/>
<stop offset="0.533333" stop-color="#3D7EC4"/>
<stop offset="0.6" stop-color="#436AC9"/>
<stop offset="0.666667" stop-color="#4858CD"/>
<stop offset="0.733333" stop-color="#4C49D1"/>
<stop offset="0.8" stop-color="#503ED3"/>
<stop offset="0.866667" stop-color="#5235D5"/>
<stop offset="0.933333" stop-color="#5431D7"/>
<stop offset="1" stop-color="#542FD7"/>
</linearGradient>
<linearGradient id="paint2_linear_111_230" x1="1.81942" y1="52.6425" x2="13.4148" y2="-3.07188" gradientUnits="userSpaceOnUse">
<stop stop-color="#20E2AC"/>
<stop offset="0.0666667" stop-color="#20E0AC"/>
<stop offset="0.133333" stop-color="#22DCAE"/>
<stop offset="0.2" stop-color="#24D3B0"/>
<stop offset="0.266667" stop-color="#28C8B2"/>
<stop offset="0.333333" stop-color="#2CB9B6"/>
<stop offset="0.4" stop-color="#31A7BA"/>
<stop offset="0.466667" stop-color="#3793BF"/>
<stop offset="0.533333" stop-color="#3D7EC4"/>
<stop offset="0.6" stop-color="#436AC9"/>
<stop offset="0.666667" stop-color="#4858CD"/>
<stop offset="0.733333" stop-color="#4C49D1"/>
<stop offset="0.8" stop-color="#503ED3"/>
<stop offset="0.866667" stop-color="#5235D5"/>
<stop offset="0.933333" stop-color="#5431D7"/>
<stop offset="1" stop-color="#542FD7"/>
</linearGradient>
<linearGradient id="paint3_linear_111_230" x1="1.81942" y1="52.6425" x2="13.4148" y2="-3.07188" gradientUnits="userSpaceOnUse">
<stop stop-color="#20E2AC"/>
<stop offset="0.0666667" stop-color="#20E0AC"/>
<stop offset="0.133333" stop-color="#22DCAE"/>
<stop offset="0.2" stop-color="#24D3B0"/>
<stop offset="0.266667" stop-color="#28C8B2"/>
<stop offset="0.333333" stop-color="#2CB9B6"/>
<stop offset="0.4" stop-color="#31A7BA"/>
<stop offset="0.466667" stop-color="#3793BF"/>
<stop offset="0.533333" stop-color="#3D7EC4"/>
<stop offset="0.6" stop-color="#436AC9"/>
<stop offset="0.666667" stop-color="#4858CD"/>
<stop offset="0.733333" stop-color="#4C49D1"/>
<stop offset="0.8" stop-color="#503ED3"/>
<stop offset="0.866667" stop-color="#5235D5"/>
<stop offset="0.933333" stop-color="#5431D7"/>
<stop offset="1" stop-color="#542FD7"/>
</linearGradient>
<linearGradient id="paint4_linear_111_230" x1="1.81942" y1="52.6425" x2="13.4148" y2="-3.07188" gradientUnits="userSpaceOnUse">
<stop stop-color="#20E2AC"/>
<stop offset="0.0666667" stop-color="#20E0AC"/>
<stop offset="0.133333" stop-color="#22DCAE"/>
<stop offset="0.2" stop-color="#24D3B0"/>
<stop offset="0.266667" stop-color="#28C8B2"/>
<stop offset="0.333333" stop-color="#2CB9B6"/>
<stop offset="0.4" stop-color="#31A7BA"/>
<stop offset="0.466667" stop-color="#3793BF"/>
<stop offset="0.533333" stop-color="#3D7EC4"/>
<stop offset="0.6" stop-color="#436AC9"/>
<stop offset="0.666667" stop-color="#4858CD"/>
<stop offset="0.733333" stop-color="#4C49D1"/>
<stop offset="0.8" stop-color="#503ED3"/>
<stop offset="0.866667" stop-color="#5235D5"/>
<stop offset="0.933333" stop-color="#5431D7"/>
<stop offset="1" stop-color="#542FD7"/>
</linearGradient>
<linearGradient id="paint5_linear_111_230" x1="1.81942" y1="52.6425" x2="13.4148" y2="-3.07188" gradientUnits="userSpaceOnUse">
<stop stop-color="#20E2AC"/>
<stop offset="0.0666667" stop-color="#20E0AC"/>
<stop offset="0.133333" stop-color="#22DCAE"/>
<stop offset="0.2" stop-color="#24D3B0"/>
<stop offset="0.266667" stop-color="#28C8B2"/>
<stop offset="0.333333" stop-color="#2CB9B6"/>
<stop offset="0.4" stop-color="#31A7BA"/>
<stop offset="0.466667" stop-color="#3793BF"/>
<stop offset="0.533333" stop-color="#3D7EC4"/>
<stop offset="0.6" stop-color="#436AC9"/>
<stop offset="0.666667" stop-color="#4858CD"/>
<stop offset="0.733333" stop-color="#4C49D1"/>
<stop offset="0.8" stop-color="#503ED3"/>
<stop offset="0.866667" stop-color="#5235D5"/>
<stop offset="0.933333" stop-color="#5431D7"/>
<stop offset="1" stop-color="#542FD7"/>
</linearGradient>
<linearGradient id="paint6_linear_111_230" x1="1.81942" y1="52.6425" x2="13.4148" y2="-3.07188" gradientUnits="userSpaceOnUse">
<stop stop-color="#20E2AC"/>
<stop offset="0.0666667" stop-color="#20E0AC"/>
<stop offset="0.133333" stop-color="#22DCAE"/>
<stop offset="0.2" stop-color="#24D3B0"/>
<stop offset="0.266667" stop-color="#28C8B2"/>
<stop offset="0.333333" stop-color="#2CB9B6"/>
<stop offset="0.4" stop-color="#31A7BA"/>
<stop offset="0.466667" stop-color="#3793BF"/>
<stop offset="0.533333" stop-color="#3D7EC4"/>
<stop offset="0.6" stop-color="#436AC9"/>
<stop offset="0.666667" stop-color="#4858CD"/>
<stop offset="0.733333" stop-color="#4C49D1"/>
<stop offset="0.8" stop-color="#503ED3"/>
<stop offset="0.866667" stop-color="#5235D5"/>
<stop offset="0.933333" stop-color="#5431D7"/>
<stop offset="1" stop-color="#542FD7"/>
</linearGradient>
<linearGradient id="paint7_linear_111_230" x1="42.4239" y1="5.69873" x2="42.4239" y2="25.6445" gradientUnits="userSpaceOnUse">
<stop stop-color="#FF52A1"/>
<stop offset="0.0666667" stop-color="#FF53A0"/>
<stop offset="0.133333" stop-color="#FF579D"/>
<stop offset="0.2" stop-color="#FF5D97"/>
<stop offset="0.266667" stop-color="#FE668F"/>
<stop offset="0.333333" stop-color="#FE7184"/>
<stop offset="0.4" stop-color="#FE7E78"/>
<stop offset="0.466667" stop-color="#FD8D6B"/>
<stop offset="0.533333" stop-color="#FD9D5C"/>
<stop offset="0.6" stop-color="#FCAC4F"/>
<stop offset="0.666667" stop-color="#FCB943"/>
<stop offset="0.733333" stop-color="#FCC438"/>
<stop offset="0.8" stop-color="#FBCD30"/>
<stop offset="0.866667" stop-color="#FBD32A"/>
<stop offset="0.933333" stop-color="#FBD727"/>
<stop offset="1" stop-color="#FBD826"/>
</linearGradient>
<linearGradient id="paint8_linear_111_230" x1="42.4239" y1="5.69873" x2="42.4239" y2="25.6445" gradientUnits="userSpaceOnUse">
<stop stop-color="#FF52A1"/>
<stop offset="0.0666667" stop-color="#FF53A0"/>
<stop offset="0.133333" stop-color="#FF579D"/>
<stop offset="0.2" stop-color="#FF5D97"/>
<stop offset="0.266667" stop-color="#FE668F"/>
<stop offset="0.333333" stop-color="#FE7184"/>
<stop offset="0.4" stop-color="#FE7E78"/>
<stop offset="0.466667" stop-color="#FD8D6B"/>
<stop offset="0.533333" stop-color="#FD9D5C"/>
<stop offset="0.6" stop-color="#FCAC4F"/>
<stop offset="0.666667" stop-color="#FCB943"/>
<stop offset="0.733333" stop-color="#FCC438"/>
<stop offset="0.8" stop-color="#FBCD30"/>
<stop offset="0.866667" stop-color="#FBD32A"/>
<stop offset="0.933333" stop-color="#FBD727"/>
<stop offset="1" stop-color="#FBD826"/>
</linearGradient>
</defs>
</svg>
