<svg width="49" height="49" viewBox="0 0 49 49" fill="none" xmlns="http://www.w3.org/2000/svg">
<circle cx="24.5" cy="24.5" r="24.5" fill="#4981C0"/>
<path fill-rule="evenodd" clip-rule="evenodd" d="M38.9712 17.4867C39.1977 16.805 38.9712 16.3092 37.9679 16.3092H34.6344C33.793 16.3092 33.4046 16.743 33.1781 17.2078C33.1781 17.2078 31.4628 21.1742 29.0679 23.7462C28.2911 24.4899 27.9351 24.7378 27.5144 24.7378C27.2879 24.7378 26.9966 24.4899 26.9966 23.8082V17.4557C26.9966 16.65 26.7377 16.2782 26.0257 16.2782H20.7828C20.2649 16.2782 19.9413 16.65 19.9413 17.0219C19.9413 17.7966 21.1388 17.9825 21.2682 20.1516V24.8617C21.2682 25.8843 21.074 26.0703 20.6533 26.0703C19.5206 26.0703 16.7697 22.0729 15.1191 17.5177C14.7955 16.6191 14.4718 16.2782 13.6304 16.2782H10.2646C9.29365 16.2782 9.13184 16.712 9.13184 17.1768C9.13184 18.0135 10.2646 22.2278 14.4071 27.8056C17.158 31.617 21.074 33.6622 24.6017 33.6622C26.7377 33.6622 26.9966 33.1974 26.9966 32.4227V29.5409C26.9966 28.6112 27.1908 28.4563 27.8704 28.4563C28.3559 28.4563 29.2297 28.7042 31.2039 30.5325C33.4693 32.7016 33.8577 33.6932 35.1199 33.6932H38.4533C39.4242 33.6932 39.8773 33.2284 39.6184 32.3298C39.3272 31.4311 38.2268 30.1296 36.8028 28.5803C36.0261 27.7126 34.861 26.752 34.505 26.2872C34.0195 25.6674 34.149 25.4195 34.505 24.8617C34.4726 24.8617 38.5504 19.346 38.9712 17.4867Z" fill="white"/>
</svg>
